G04 #@! TF.GenerationSoftware,KiCad,Pcbnew,(5.1.5)-3*
G04 #@! TF.CreationDate,2021-11-18T20:40:18-08:00*
G04 #@! TF.ProjectId,nixie_supply_v1,6e697869-655f-4737-9570-706c795f7631,rev?*
G04 #@! TF.SameCoordinates,Original*
G04 #@! TF.FileFunction,Soldermask,Bot*
G04 #@! TF.FilePolarity,Negative*
%FSLAX46Y46*%
G04 Gerber Fmt 4.6, Leading zero omitted, Abs format (unit mm)*
G04 Created by KiCad (PCBNEW (5.1.5)-3) date 2021-11-18 20:40:18*
%MOMM*%
%LPD*%
G04 APERTURE LIST*
%ADD10C,0.120000*%
%ADD11C,0.150000*%
G04 APERTURE END LIST*
D10*
X159664400Y-69088000D02*
G75*
G03X159664400Y-69088000I-31750000J0D01*
G01*
D11*
G36*
X127606672Y-91113828D02*
G01*
X127793391Y-91191170D01*
X127793393Y-91191171D01*
X127961437Y-91303454D01*
X128104346Y-91446363D01*
X128216629Y-91614407D01*
X128216630Y-91614409D01*
X128293972Y-91801128D01*
X128333400Y-91999347D01*
X128333400Y-92201453D01*
X128293972Y-92399672D01*
X128216630Y-92586391D01*
X128216629Y-92586393D01*
X128104346Y-92754437D01*
X127961437Y-92897346D01*
X127793393Y-93009629D01*
X127793392Y-93009630D01*
X127793391Y-93009630D01*
X127606672Y-93086972D01*
X127408453Y-93126400D01*
X127206347Y-93126400D01*
X127008128Y-93086972D01*
X126821409Y-93009630D01*
X126821408Y-93009630D01*
X126821407Y-93009629D01*
X126653363Y-92897346D01*
X126510454Y-92754437D01*
X126398171Y-92586393D01*
X126398170Y-92586391D01*
X126320828Y-92399672D01*
X126281400Y-92201453D01*
X126281400Y-91999347D01*
X126320828Y-91801128D01*
X126398170Y-91614409D01*
X126398171Y-91614407D01*
X126510454Y-91446363D01*
X126653363Y-91303454D01*
X126821407Y-91191171D01*
X126821409Y-91191170D01*
X127008128Y-91113828D01*
X127206347Y-91074400D01*
X127408453Y-91074400D01*
X127606672Y-91113828D01*
G37*
G36*
X131106672Y-91113828D02*
G01*
X131293391Y-91191170D01*
X131293393Y-91191171D01*
X131461437Y-91303454D01*
X131604346Y-91446363D01*
X131716629Y-91614407D01*
X131716630Y-91614409D01*
X131793972Y-91801128D01*
X131833400Y-91999347D01*
X131833400Y-92201453D01*
X131793972Y-92399672D01*
X131716630Y-92586391D01*
X131716629Y-92586393D01*
X131604346Y-92754437D01*
X131461437Y-92897346D01*
X131293393Y-93009629D01*
X131293392Y-93009630D01*
X131293391Y-93009630D01*
X131106672Y-93086972D01*
X130908453Y-93126400D01*
X130706347Y-93126400D01*
X130508128Y-93086972D01*
X130321409Y-93009630D01*
X130321408Y-93009630D01*
X130321407Y-93009629D01*
X130153363Y-92897346D01*
X130010454Y-92754437D01*
X129898171Y-92586393D01*
X129898170Y-92586391D01*
X129820828Y-92399672D01*
X129781400Y-92201453D01*
X129781400Y-91999347D01*
X129820828Y-91801128D01*
X129898170Y-91614409D01*
X129898171Y-91614407D01*
X130010454Y-91446363D01*
X130153363Y-91303454D01*
X130321407Y-91191171D01*
X130321409Y-91191170D01*
X130508128Y-91113828D01*
X130706347Y-91074400D01*
X130908453Y-91074400D01*
X131106672Y-91113828D01*
G37*
G36*
X136765600Y-60032200D02*
G01*
X134963600Y-60032200D01*
X134963600Y-58230200D01*
X136765600Y-58230200D01*
X136765600Y-60032200D01*
G37*
G36*
X133438112Y-58235127D02*
G01*
X133587412Y-58264824D01*
X133751384Y-58332744D01*
X133898954Y-58431347D01*
X134024453Y-58556846D01*
X134123056Y-58704416D01*
X134190976Y-58868388D01*
X134225600Y-59042459D01*
X134225600Y-59219941D01*
X134190976Y-59394012D01*
X134123056Y-59557984D01*
X134024453Y-59705554D01*
X133898954Y-59831053D01*
X133751384Y-59929656D01*
X133587412Y-59997576D01*
X133438112Y-60027273D01*
X133413342Y-60032200D01*
X133235858Y-60032200D01*
X133211088Y-60027273D01*
X133061788Y-59997576D01*
X132897816Y-59929656D01*
X132750246Y-59831053D01*
X132624747Y-59705554D01*
X132526144Y-59557984D01*
X132458224Y-59394012D01*
X132423600Y-59219941D01*
X132423600Y-59042459D01*
X132458224Y-58868388D01*
X132526144Y-58704416D01*
X132624747Y-58556846D01*
X132750246Y-58431347D01*
X132897816Y-58332744D01*
X133061788Y-58264824D01*
X133211088Y-58235127D01*
X133235858Y-58230200D01*
X133413342Y-58230200D01*
X133438112Y-58235127D01*
G37*
G36*
X121754200Y-50227800D02*
G01*
X119952200Y-50227800D01*
X119952200Y-48425800D01*
X121754200Y-48425800D01*
X121754200Y-50227800D01*
G37*
G36*
X141206098Y-42759033D02*
G01*
X141670350Y-42951332D01*
X141670352Y-42951333D01*
X142088168Y-43230509D01*
X142443491Y-43585832D01*
X142722667Y-44003648D01*
X142722668Y-44003650D01*
X142914967Y-44467902D01*
X143013000Y-44960747D01*
X143013000Y-45463253D01*
X142914967Y-45956098D01*
X142722668Y-46420350D01*
X142722667Y-46420352D01*
X142443491Y-46838168D01*
X142088168Y-47193491D01*
X141670352Y-47472667D01*
X141670351Y-47472668D01*
X141670350Y-47472668D01*
X141206098Y-47664967D01*
X140713253Y-47763000D01*
X140210747Y-47763000D01*
X139717902Y-47664967D01*
X139253650Y-47472668D01*
X139253649Y-47472668D01*
X139253648Y-47472667D01*
X138835832Y-47193491D01*
X138480509Y-46838168D01*
X138201333Y-46420352D01*
X138201332Y-46420350D01*
X138009033Y-45956098D01*
X137911000Y-45463253D01*
X137911000Y-44960747D01*
X138009033Y-44467902D01*
X138201332Y-44003650D01*
X138201333Y-44003648D01*
X138480509Y-43585832D01*
X138835832Y-43230509D01*
X139253648Y-42951333D01*
X139253650Y-42951332D01*
X139717902Y-42759033D01*
X140210747Y-42661000D01*
X140713253Y-42661000D01*
X141206098Y-42759033D01*
G37*
G36*
X114057912Y-44138127D02*
G01*
X114207212Y-44167824D01*
X114371184Y-44235744D01*
X114518754Y-44334347D01*
X114644253Y-44459846D01*
X114742856Y-44607416D01*
X114810776Y-44771388D01*
X114845400Y-44945459D01*
X114845400Y-45122941D01*
X114810776Y-45297012D01*
X114742856Y-45460984D01*
X114644253Y-45608554D01*
X114518754Y-45734053D01*
X114371184Y-45832656D01*
X114207212Y-45900576D01*
X114057912Y-45930273D01*
X114033142Y-45935200D01*
X113855658Y-45935200D01*
X113830888Y-45930273D01*
X113681588Y-45900576D01*
X113517616Y-45832656D01*
X113370046Y-45734053D01*
X113244547Y-45608554D01*
X113145944Y-45460984D01*
X113078024Y-45297012D01*
X113043400Y-45122941D01*
X113043400Y-44945459D01*
X113078024Y-44771388D01*
X113145944Y-44607416D01*
X113244547Y-44459846D01*
X113370046Y-44334347D01*
X113517616Y-44235744D01*
X113681588Y-44167824D01*
X113830888Y-44138127D01*
X113855658Y-44133200D01*
X114033142Y-44133200D01*
X114057912Y-44138127D01*
G37*
G36*
X116597912Y-44138127D02*
G01*
X116747212Y-44167824D01*
X116911184Y-44235744D01*
X117058754Y-44334347D01*
X117184253Y-44459846D01*
X117282856Y-44607416D01*
X117350776Y-44771388D01*
X117385400Y-44945459D01*
X117385400Y-45122941D01*
X117350776Y-45297012D01*
X117282856Y-45460984D01*
X117184253Y-45608554D01*
X117058754Y-45734053D01*
X116911184Y-45832656D01*
X116747212Y-45900576D01*
X116597912Y-45930273D01*
X116573142Y-45935200D01*
X116395658Y-45935200D01*
X116370888Y-45930273D01*
X116221588Y-45900576D01*
X116057616Y-45832656D01*
X115910046Y-45734053D01*
X115784547Y-45608554D01*
X115685944Y-45460984D01*
X115618024Y-45297012D01*
X115583400Y-45122941D01*
X115583400Y-44945459D01*
X115618024Y-44771388D01*
X115685944Y-44607416D01*
X115784547Y-44459846D01*
X115910046Y-44334347D01*
X116057616Y-44235744D01*
X116221588Y-44167824D01*
X116370888Y-44138127D01*
X116395658Y-44133200D01*
X116573142Y-44133200D01*
X116597912Y-44138127D01*
G37*
G36*
X119925400Y-45935200D02*
G01*
X118123400Y-45935200D01*
X118123400Y-44133200D01*
X119925400Y-44133200D01*
X119925400Y-45935200D01*
G37*
G36*
X128922272Y-41177428D02*
G01*
X129108991Y-41254770D01*
X129108993Y-41254771D01*
X129277037Y-41367054D01*
X129419946Y-41509963D01*
X129532229Y-41678007D01*
X129532230Y-41678009D01*
X129609572Y-41864728D01*
X129649000Y-42062947D01*
X129649000Y-42265053D01*
X129609572Y-42463272D01*
X129532230Y-42649991D01*
X129532229Y-42649993D01*
X129419946Y-42818037D01*
X129277037Y-42960946D01*
X129108993Y-43073229D01*
X129108992Y-43073230D01*
X129108991Y-43073230D01*
X128922272Y-43150572D01*
X128724053Y-43190000D01*
X128521947Y-43190000D01*
X128323728Y-43150572D01*
X128137009Y-43073230D01*
X128137008Y-43073230D01*
X128137007Y-43073229D01*
X127968963Y-42960946D01*
X127826054Y-42818037D01*
X127713771Y-42649993D01*
X127713770Y-42649991D01*
X127636428Y-42463272D01*
X127597000Y-42265053D01*
X127597000Y-42062947D01*
X127636428Y-41864728D01*
X127713770Y-41678009D01*
X127713771Y-41678007D01*
X127826054Y-41509963D01*
X127968963Y-41367054D01*
X128137007Y-41254771D01*
X128137009Y-41254770D01*
X128323728Y-41177428D01*
X128521947Y-41138000D01*
X128724053Y-41138000D01*
X128922272Y-41177428D01*
G37*
G36*
X125422272Y-41177428D02*
G01*
X125608991Y-41254770D01*
X125608993Y-41254771D01*
X125777037Y-41367054D01*
X125919946Y-41509963D01*
X126032229Y-41678007D01*
X126032230Y-41678009D01*
X126109572Y-41864728D01*
X126149000Y-42062947D01*
X126149000Y-42265053D01*
X126109572Y-42463272D01*
X126032230Y-42649991D01*
X126032229Y-42649993D01*
X125919946Y-42818037D01*
X125777037Y-42960946D01*
X125608993Y-43073229D01*
X125608992Y-43073230D01*
X125608991Y-43073230D01*
X125422272Y-43150572D01*
X125224053Y-43190000D01*
X125021947Y-43190000D01*
X124823728Y-43150572D01*
X124637009Y-43073230D01*
X124637008Y-43073230D01*
X124637007Y-43073229D01*
X124468963Y-42960946D01*
X124326054Y-42818037D01*
X124213771Y-42649993D01*
X124213770Y-42649991D01*
X124136428Y-42463272D01*
X124097000Y-42265053D01*
X124097000Y-42062947D01*
X124136428Y-41864728D01*
X124213770Y-41678009D01*
X124213771Y-41678007D01*
X124326054Y-41509963D01*
X124468963Y-41367054D01*
X124637007Y-41254771D01*
X124637009Y-41254770D01*
X124823728Y-41177428D01*
X125021947Y-41138000D01*
X125224053Y-41138000D01*
X125422272Y-41177428D01*
G37*
M02*
