G04 #@! TF.GenerationSoftware,KiCad,Pcbnew,(5.1.5)-3*
G04 #@! TF.CreationDate,2021-11-18T20:40:18-08:00*
G04 #@! TF.ProjectId,nixie_supply_v1,6e697869-655f-4737-9570-706c795f7631,rev?*
G04 #@! TF.SameCoordinates,Original*
G04 #@! TF.FileFunction,Copper,L3,Inr*
G04 #@! TF.FilePolarity,Positive*
%FSLAX46Y46*%
G04 Gerber Fmt 4.6, Leading zero omitted, Abs format (unit mm)*
G04 Created by KiCad (PCBNEW (5.1.5)-3) date 2021-11-18 20:40:18*
%MOMM*%
%LPD*%
G04 APERTURE LIST*
%ADD10C,0.120000*%
%ADD11C,5.000000*%
%ADD12O,1.700000X1.700000*%
%ADD13R,1.700000X1.700000*%
%ADD14C,1.950000*%
%ADD15C,0.800000*%
%ADD16C,1.600200*%
%ADD17C,0.254000*%
G04 APERTURE END LIST*
D10*
X159664400Y-69088000D02*
G75*
G03X159664400Y-69088000I-31750000J0D01*
G01*
D11*
X140462000Y-45212000D03*
D12*
X133324600Y-59131200D03*
D13*
X135864600Y-59131200D03*
D14*
X127307400Y-92100400D03*
X130807400Y-92100400D03*
X125123000Y-42164000D03*
X128623000Y-42164000D03*
D13*
X119024400Y-45034200D03*
D12*
X116484400Y-45034200D03*
X113944400Y-45034200D03*
D13*
X120853200Y-49326800D03*
D15*
X114782600Y-62026800D03*
X124587000Y-55880000D03*
D16*
X100421440Y-61526420D03*
X100421440Y-58986420D03*
X100421440Y-64066420D03*
X130886200Y-82397600D03*
X130886200Y-79857600D03*
D15*
X123398280Y-51440080D03*
X124668280Y-51440080D03*
D16*
X109169200Y-47599600D03*
X109169200Y-45059600D03*
X100365560Y-74693780D03*
X100365560Y-72153780D03*
X100365560Y-69613780D03*
X112115600Y-69189600D03*
X114655600Y-69189600D03*
X112115600Y-79349600D03*
X114655600Y-79349600D03*
X144322800Y-84455000D03*
X144322800Y-81915000D03*
X137795000Y-81915000D03*
X137795000Y-84455000D03*
X131671060Y-42006520D03*
X131671060Y-44546520D03*
X131671060Y-39466520D03*
X106606340Y-60612020D03*
X106606340Y-58072020D03*
X106832400Y-52603400D03*
X106832400Y-50063400D03*
D15*
X120294400Y-54889400D03*
X120294400Y-57429400D03*
X118719600Y-62458600D03*
X120269000Y-59944000D03*
X124663200Y-52578000D03*
X104749600Y-59359800D03*
X116052600Y-62280800D03*
X117322600Y-62763400D03*
X117043200Y-96139000D03*
X115265200Y-64643000D03*
X123017280Y-64678560D03*
D17*
G36*
X129557938Y-38076521D02*
G01*
X131741361Y-38269704D01*
X133905719Y-38616421D01*
X136040228Y-39114946D01*
X138134255Y-39762796D01*
X140177367Y-40556742D01*
X142159385Y-41492830D01*
X144070436Y-42566395D01*
X145900998Y-43772090D01*
X147641952Y-45103907D01*
X149284624Y-46555212D01*
X150820831Y-48118774D01*
X152242919Y-49786803D01*
X153543803Y-51550991D01*
X154717004Y-53402546D01*
X155756675Y-55332246D01*
X156657637Y-57330476D01*
X157415402Y-59387282D01*
X158026194Y-61492416D01*
X158486971Y-63635391D01*
X158795437Y-65805531D01*
X158950055Y-67992024D01*
X158950055Y-70183976D01*
X158795437Y-72370469D01*
X158486971Y-74540609D01*
X158026194Y-76683584D01*
X157415402Y-78788718D01*
X156657637Y-80845524D01*
X155756675Y-82843754D01*
X154717004Y-84773454D01*
X153543803Y-86625009D01*
X152242919Y-88389197D01*
X150820831Y-90057226D01*
X149284624Y-91620788D01*
X147641952Y-93072093D01*
X145900998Y-94403910D01*
X144070436Y-95609605D01*
X142159385Y-96683170D01*
X140177367Y-97619258D01*
X138134255Y-98413204D01*
X136040228Y-99061054D01*
X133905719Y-99559579D01*
X131741361Y-99906296D01*
X129557938Y-100099479D01*
X127366326Y-100138163D01*
X125177445Y-100022158D01*
X123002200Y-99752039D01*
X120851427Y-99329155D01*
X118735841Y-98755610D01*
X116665982Y-98034263D01*
X114652162Y-97168706D01*
X112704414Y-96163254D01*
X112497257Y-96037061D01*
X116008200Y-96037061D01*
X116008200Y-96240939D01*
X116047974Y-96440898D01*
X116125995Y-96629256D01*
X116239263Y-96798774D01*
X116383426Y-96942937D01*
X116552944Y-97056205D01*
X116741302Y-97134226D01*
X116941261Y-97174000D01*
X117145139Y-97174000D01*
X117345098Y-97134226D01*
X117533456Y-97056205D01*
X117702974Y-96942937D01*
X117847137Y-96798774D01*
X117960405Y-96629256D01*
X118038426Y-96440898D01*
X118078200Y-96240939D01*
X118078200Y-96037061D01*
X118038426Y-95837102D01*
X117960405Y-95648744D01*
X117847137Y-95479226D01*
X117702974Y-95335063D01*
X117533456Y-95221795D01*
X117345098Y-95143774D01*
X117145139Y-95104000D01*
X116941261Y-95104000D01*
X116741302Y-95143774D01*
X116552944Y-95221795D01*
X116383426Y-95335063D01*
X116239263Y-95479226D01*
X116125995Y-95648744D01*
X116047974Y-95837102D01*
X116008200Y-96037061D01*
X112497257Y-96037061D01*
X110832442Y-95022913D01*
X109045571Y-93753367D01*
X107352703Y-92360938D01*
X106910795Y-91941829D01*
X125697400Y-91941829D01*
X125697400Y-92258971D01*
X125759271Y-92570020D01*
X125880637Y-92863021D01*
X126056831Y-93126715D01*
X126281085Y-93350969D01*
X126544779Y-93527163D01*
X126837780Y-93648529D01*
X127148829Y-93710400D01*
X127465971Y-93710400D01*
X127777020Y-93648529D01*
X128070021Y-93527163D01*
X128333715Y-93350969D01*
X128466700Y-93217984D01*
X129869421Y-93217984D01*
X129962166Y-93479829D01*
X130247520Y-93618220D01*
X130554390Y-93698283D01*
X130870984Y-93716940D01*
X131185133Y-93673474D01*
X131484767Y-93569556D01*
X131652634Y-93479829D01*
X131745379Y-93217984D01*
X130807400Y-92280005D01*
X129869421Y-93217984D01*
X128466700Y-93217984D01*
X128557969Y-93126715D01*
X128734163Y-92863021D01*
X128855529Y-92570020D01*
X128917400Y-92258971D01*
X128917400Y-92163984D01*
X129190860Y-92163984D01*
X129234326Y-92478133D01*
X129338244Y-92777767D01*
X129427971Y-92945634D01*
X129689816Y-93038379D01*
X130627795Y-92100400D01*
X130987005Y-92100400D01*
X131924984Y-93038379D01*
X132186829Y-92945634D01*
X132325220Y-92660280D01*
X132405283Y-92353410D01*
X132423940Y-92036816D01*
X132380474Y-91722667D01*
X132276556Y-91423033D01*
X132186829Y-91255166D01*
X131924984Y-91162421D01*
X130987005Y-92100400D01*
X130627795Y-92100400D01*
X129689816Y-91162421D01*
X129427971Y-91255166D01*
X129289580Y-91540520D01*
X129209517Y-91847390D01*
X129190860Y-92163984D01*
X128917400Y-92163984D01*
X128917400Y-91941829D01*
X128855529Y-91630780D01*
X128734163Y-91337779D01*
X128557969Y-91074085D01*
X128466700Y-90982816D01*
X129869421Y-90982816D01*
X130807400Y-91920795D01*
X131745379Y-90982816D01*
X131652634Y-90720971D01*
X131367280Y-90582580D01*
X131060410Y-90502517D01*
X130743816Y-90483860D01*
X130429667Y-90527326D01*
X130130033Y-90631244D01*
X129962166Y-90720971D01*
X129869421Y-90982816D01*
X128466700Y-90982816D01*
X128333715Y-90849831D01*
X128070021Y-90673637D01*
X127777020Y-90552271D01*
X127465971Y-90490400D01*
X127148829Y-90490400D01*
X126837780Y-90552271D01*
X126544779Y-90673637D01*
X126281085Y-90849831D01*
X126056831Y-91074085D01*
X125880637Y-91337779D01*
X125759271Y-91630780D01*
X125697400Y-91941829D01*
X106910795Y-91941829D01*
X105762273Y-90852565D01*
X104282204Y-89235762D01*
X102919869Y-87518584D01*
X101682055Y-85709586D01*
X100574930Y-83817780D01*
X99604009Y-81852590D01*
X98774128Y-79823809D01*
X98089423Y-77741541D01*
X97553305Y-75616163D01*
X97168444Y-73458261D01*
X96936757Y-71278587D01*
X96859400Y-69088000D01*
X96936757Y-66897413D01*
X97168444Y-64717739D01*
X97199954Y-64541061D01*
X114230200Y-64541061D01*
X114230200Y-64744939D01*
X114269974Y-64944898D01*
X114347995Y-65133256D01*
X114461263Y-65302774D01*
X114605426Y-65446937D01*
X114774944Y-65560205D01*
X114963302Y-65638226D01*
X115163261Y-65678000D01*
X115367139Y-65678000D01*
X115567098Y-65638226D01*
X115755456Y-65560205D01*
X115924974Y-65446937D01*
X116069137Y-65302774D01*
X116182405Y-65133256D01*
X116260426Y-64944898D01*
X116300200Y-64744939D01*
X116300200Y-64576621D01*
X121982280Y-64576621D01*
X121982280Y-64780499D01*
X122022054Y-64980458D01*
X122100075Y-65168816D01*
X122213343Y-65338334D01*
X122357506Y-65482497D01*
X122527024Y-65595765D01*
X122715382Y-65673786D01*
X122915341Y-65713560D01*
X123119219Y-65713560D01*
X123319178Y-65673786D01*
X123507536Y-65595765D01*
X123677054Y-65482497D01*
X123821217Y-65338334D01*
X123934485Y-65168816D01*
X124012506Y-64980458D01*
X124052280Y-64780499D01*
X124052280Y-64576621D01*
X124012506Y-64376662D01*
X123934485Y-64188304D01*
X123821217Y-64018786D01*
X123677054Y-63874623D01*
X123507536Y-63761355D01*
X123319178Y-63683334D01*
X123119219Y-63643560D01*
X122915341Y-63643560D01*
X122715382Y-63683334D01*
X122527024Y-63761355D01*
X122357506Y-63874623D01*
X122213343Y-64018786D01*
X122100075Y-64188304D01*
X122022054Y-64376662D01*
X121982280Y-64576621D01*
X116300200Y-64576621D01*
X116300200Y-64541061D01*
X116260426Y-64341102D01*
X116182405Y-64152744D01*
X116069137Y-63983226D01*
X115924974Y-63839063D01*
X115755456Y-63725795D01*
X115567098Y-63647774D01*
X115367139Y-63608000D01*
X115163261Y-63608000D01*
X114963302Y-63647774D01*
X114774944Y-63725795D01*
X114605426Y-63839063D01*
X114461263Y-63983226D01*
X114347995Y-64152744D01*
X114269974Y-64341102D01*
X114230200Y-64541061D01*
X97199954Y-64541061D01*
X97553305Y-62559837D01*
X97713475Y-61924861D01*
X113747600Y-61924861D01*
X113747600Y-62128739D01*
X113787374Y-62328698D01*
X113865395Y-62517056D01*
X113978663Y-62686574D01*
X114122826Y-62830737D01*
X114292344Y-62944005D01*
X114480702Y-63022026D01*
X114680661Y-63061800D01*
X114884539Y-63061800D01*
X115084498Y-63022026D01*
X115258175Y-62950086D01*
X115392826Y-63084737D01*
X115562344Y-63198005D01*
X115750702Y-63276026D01*
X115950661Y-63315800D01*
X116154539Y-63315800D01*
X116354498Y-63276026D01*
X116406069Y-63254664D01*
X116518663Y-63423174D01*
X116662826Y-63567337D01*
X116832344Y-63680605D01*
X117020702Y-63758626D01*
X117220661Y-63798400D01*
X117424539Y-63798400D01*
X117624498Y-63758626D01*
X117812856Y-63680605D01*
X117982374Y-63567337D01*
X118126537Y-63423174D01*
X118239805Y-63253656D01*
X118317826Y-63065298D01*
X118357600Y-62865339D01*
X118357600Y-62661461D01*
X118317826Y-62461502D01*
X118239805Y-62273144D01*
X118126537Y-62103626D01*
X117982374Y-61959463D01*
X117812856Y-61846195D01*
X117624498Y-61768174D01*
X117424539Y-61728400D01*
X117220661Y-61728400D01*
X117020702Y-61768174D01*
X116969131Y-61789536D01*
X116856537Y-61621026D01*
X116712374Y-61476863D01*
X116542856Y-61363595D01*
X116354498Y-61285574D01*
X116154539Y-61245800D01*
X115950661Y-61245800D01*
X115750702Y-61285574D01*
X115577025Y-61357514D01*
X115442374Y-61222863D01*
X115272856Y-61109595D01*
X115084498Y-61031574D01*
X114884539Y-60991800D01*
X114680661Y-60991800D01*
X114480702Y-61031574D01*
X114292344Y-61109595D01*
X114122826Y-61222863D01*
X113978663Y-61367026D01*
X113865395Y-61536544D01*
X113787374Y-61724902D01*
X113747600Y-61924861D01*
X97713475Y-61924861D01*
X98089423Y-60434459D01*
X98476319Y-59257861D01*
X103714600Y-59257861D01*
X103714600Y-59461739D01*
X103754374Y-59661698D01*
X103832395Y-59850056D01*
X103945663Y-60019574D01*
X104089826Y-60163737D01*
X104259344Y-60277005D01*
X104447702Y-60355026D01*
X104647661Y-60394800D01*
X104851539Y-60394800D01*
X105051498Y-60355026D01*
X105239856Y-60277005D01*
X105409374Y-60163737D01*
X105553537Y-60019574D01*
X105666805Y-59850056D01*
X105744826Y-59661698D01*
X105784600Y-59461739D01*
X105784600Y-59257861D01*
X105744826Y-59057902D01*
X105714604Y-58984940D01*
X131839600Y-58984940D01*
X131839600Y-59277460D01*
X131896668Y-59564358D01*
X132008610Y-59834611D01*
X132171125Y-60077832D01*
X132377968Y-60284675D01*
X132621189Y-60447190D01*
X132891442Y-60559132D01*
X133178340Y-60616200D01*
X133470860Y-60616200D01*
X133757758Y-60559132D01*
X134028011Y-60447190D01*
X134271232Y-60284675D01*
X134403087Y-60152820D01*
X134425098Y-60225380D01*
X134484063Y-60335694D01*
X134563415Y-60432385D01*
X134660106Y-60511737D01*
X134770420Y-60570702D01*
X134890118Y-60607012D01*
X135014600Y-60619272D01*
X136714600Y-60619272D01*
X136839082Y-60607012D01*
X136958780Y-60570702D01*
X137069094Y-60511737D01*
X137165785Y-60432385D01*
X137245137Y-60335694D01*
X137304102Y-60225380D01*
X137340412Y-60105682D01*
X137352672Y-59981200D01*
X137352672Y-58281200D01*
X137340412Y-58156718D01*
X137304102Y-58037020D01*
X137245137Y-57926706D01*
X137165785Y-57830015D01*
X137069094Y-57750663D01*
X136958780Y-57691698D01*
X136839082Y-57655388D01*
X136714600Y-57643128D01*
X135014600Y-57643128D01*
X134890118Y-57655388D01*
X134770420Y-57691698D01*
X134660106Y-57750663D01*
X134563415Y-57830015D01*
X134484063Y-57926706D01*
X134425098Y-58037020D01*
X134403087Y-58109580D01*
X134271232Y-57977725D01*
X134028011Y-57815210D01*
X133757758Y-57703268D01*
X133470860Y-57646200D01*
X133178340Y-57646200D01*
X132891442Y-57703268D01*
X132621189Y-57815210D01*
X132377968Y-57977725D01*
X132171125Y-58184568D01*
X132008610Y-58427789D01*
X131896668Y-58698042D01*
X131839600Y-58984940D01*
X105714604Y-58984940D01*
X105666805Y-58869544D01*
X105553537Y-58700026D01*
X105409374Y-58555863D01*
X105239856Y-58442595D01*
X105051498Y-58364574D01*
X104851539Y-58324800D01*
X104647661Y-58324800D01*
X104447702Y-58364574D01*
X104259344Y-58442595D01*
X104089826Y-58555863D01*
X103945663Y-58700026D01*
X103832395Y-58869544D01*
X103754374Y-59057902D01*
X103714600Y-59257861D01*
X98476319Y-59257861D01*
X98774128Y-58352191D01*
X99604009Y-56323410D01*
X99873443Y-55778061D01*
X123552000Y-55778061D01*
X123552000Y-55981939D01*
X123591774Y-56181898D01*
X123669795Y-56370256D01*
X123783063Y-56539774D01*
X123927226Y-56683937D01*
X124096744Y-56797205D01*
X124285102Y-56875226D01*
X124485061Y-56915000D01*
X124688939Y-56915000D01*
X124888898Y-56875226D01*
X125077256Y-56797205D01*
X125246774Y-56683937D01*
X125390937Y-56539774D01*
X125504205Y-56370256D01*
X125582226Y-56181898D01*
X125622000Y-55981939D01*
X125622000Y-55778061D01*
X125582226Y-55578102D01*
X125504205Y-55389744D01*
X125390937Y-55220226D01*
X125246774Y-55076063D01*
X125077256Y-54962795D01*
X124888898Y-54884774D01*
X124688939Y-54845000D01*
X124485061Y-54845000D01*
X124285102Y-54884774D01*
X124096744Y-54962795D01*
X123927226Y-55076063D01*
X123783063Y-55220226D01*
X123669795Y-55389744D01*
X123591774Y-55578102D01*
X123552000Y-55778061D01*
X99873443Y-55778061D01*
X100574930Y-54358220D01*
X101682055Y-52466414D01*
X102919869Y-50657416D01*
X104282204Y-48940238D01*
X104706448Y-48476800D01*
X119365128Y-48476800D01*
X119365128Y-50176800D01*
X119377388Y-50301282D01*
X119413698Y-50420980D01*
X119472663Y-50531294D01*
X119552015Y-50627985D01*
X119648706Y-50707337D01*
X119759020Y-50766302D01*
X119878718Y-50802612D01*
X120003200Y-50814872D01*
X121703200Y-50814872D01*
X121827682Y-50802612D01*
X121947380Y-50766302D01*
X122057694Y-50707337D01*
X122154385Y-50627985D01*
X122233737Y-50531294D01*
X122292702Y-50420980D01*
X122329012Y-50301282D01*
X122341272Y-50176800D01*
X122341272Y-48476800D01*
X122329012Y-48352318D01*
X122292702Y-48232620D01*
X122233737Y-48122306D01*
X122154385Y-48025615D01*
X122057694Y-47946263D01*
X121947380Y-47887298D01*
X121827682Y-47850988D01*
X121703200Y-47838728D01*
X120003200Y-47838728D01*
X119878718Y-47850988D01*
X119759020Y-47887298D01*
X119648706Y-47946263D01*
X119552015Y-48025615D01*
X119472663Y-48122306D01*
X119413698Y-48232620D01*
X119377388Y-48352318D01*
X119365128Y-48476800D01*
X104706448Y-48476800D01*
X105678316Y-47415148D01*
X138438457Y-47415148D01*
X138714627Y-47833118D01*
X139259557Y-48123649D01*
X139850696Y-48302287D01*
X140465328Y-48362168D01*
X141079831Y-48300990D01*
X141670592Y-48121103D01*
X142209373Y-47833118D01*
X142485543Y-47415148D01*
X140462000Y-45391605D01*
X138438457Y-47415148D01*
X105678316Y-47415148D01*
X105762273Y-47323435D01*
X107352703Y-45815062D01*
X108479866Y-44887940D01*
X112459400Y-44887940D01*
X112459400Y-45180460D01*
X112516468Y-45467358D01*
X112628410Y-45737611D01*
X112790925Y-45980832D01*
X112997768Y-46187675D01*
X113240989Y-46350190D01*
X113511242Y-46462132D01*
X113798140Y-46519200D01*
X114090660Y-46519200D01*
X114377558Y-46462132D01*
X114647811Y-46350190D01*
X114891032Y-46187675D01*
X115097875Y-45980832D01*
X115214400Y-45806440D01*
X115330925Y-45980832D01*
X115537768Y-46187675D01*
X115780989Y-46350190D01*
X116051242Y-46462132D01*
X116338140Y-46519200D01*
X116630660Y-46519200D01*
X116917558Y-46462132D01*
X117187811Y-46350190D01*
X117431032Y-46187675D01*
X117562887Y-46055820D01*
X117584898Y-46128380D01*
X117643863Y-46238694D01*
X117723215Y-46335385D01*
X117819906Y-46414737D01*
X117930220Y-46473702D01*
X118049918Y-46510012D01*
X118174400Y-46522272D01*
X119874400Y-46522272D01*
X119998882Y-46510012D01*
X120118580Y-46473702D01*
X120228894Y-46414737D01*
X120325585Y-46335385D01*
X120404937Y-46238694D01*
X120463902Y-46128380D01*
X120500212Y-46008682D01*
X120512472Y-45884200D01*
X120512472Y-45215328D01*
X137311832Y-45215328D01*
X137373010Y-45829831D01*
X137552897Y-46420592D01*
X137840882Y-46959373D01*
X138258852Y-47235543D01*
X140282395Y-45212000D01*
X140641605Y-45212000D01*
X142665148Y-47235543D01*
X143083118Y-46959373D01*
X143373649Y-46414443D01*
X143552287Y-45823304D01*
X143612168Y-45208672D01*
X143550990Y-44594169D01*
X143371103Y-44003408D01*
X143083118Y-43464627D01*
X142665148Y-43188457D01*
X140641605Y-45212000D01*
X140282395Y-45212000D01*
X138258852Y-43188457D01*
X137840882Y-43464627D01*
X137550351Y-44009557D01*
X137371713Y-44600696D01*
X137311832Y-45215328D01*
X120512472Y-45215328D01*
X120512472Y-44184200D01*
X120500212Y-44059718D01*
X120463902Y-43940020D01*
X120404937Y-43829706D01*
X120325585Y-43733015D01*
X120228894Y-43653663D01*
X120118580Y-43594698D01*
X119998882Y-43558388D01*
X119874400Y-43546128D01*
X118174400Y-43546128D01*
X118049918Y-43558388D01*
X117930220Y-43594698D01*
X117819906Y-43653663D01*
X117723215Y-43733015D01*
X117643863Y-43829706D01*
X117584898Y-43940020D01*
X117562887Y-44012580D01*
X117431032Y-43880725D01*
X117187811Y-43718210D01*
X116917558Y-43606268D01*
X116630660Y-43549200D01*
X116338140Y-43549200D01*
X116051242Y-43606268D01*
X115780989Y-43718210D01*
X115537768Y-43880725D01*
X115330925Y-44087568D01*
X115214400Y-44261960D01*
X115097875Y-44087568D01*
X114891032Y-43880725D01*
X114647811Y-43718210D01*
X114377558Y-43606268D01*
X114090660Y-43549200D01*
X113798140Y-43549200D01*
X113511242Y-43606268D01*
X113240989Y-43718210D01*
X112997768Y-43880725D01*
X112790925Y-44087568D01*
X112628410Y-44330789D01*
X112516468Y-44601042D01*
X112459400Y-44887940D01*
X108479866Y-44887940D01*
X109045571Y-44422633D01*
X110832442Y-43153087D01*
X112704414Y-42012746D01*
X112718588Y-42005429D01*
X123513000Y-42005429D01*
X123513000Y-42322571D01*
X123574871Y-42633620D01*
X123696237Y-42926621D01*
X123872431Y-43190315D01*
X124096685Y-43414569D01*
X124360379Y-43590763D01*
X124653380Y-43712129D01*
X124964429Y-43774000D01*
X125281571Y-43774000D01*
X125592620Y-43712129D01*
X125885621Y-43590763D01*
X126149315Y-43414569D01*
X126282300Y-43281584D01*
X127685021Y-43281584D01*
X127777766Y-43543429D01*
X128063120Y-43681820D01*
X128369990Y-43761883D01*
X128686584Y-43780540D01*
X129000733Y-43737074D01*
X129300367Y-43633156D01*
X129468234Y-43543429D01*
X129560979Y-43281584D01*
X128623000Y-42343605D01*
X127685021Y-43281584D01*
X126282300Y-43281584D01*
X126373569Y-43190315D01*
X126549763Y-42926621D01*
X126671129Y-42633620D01*
X126733000Y-42322571D01*
X126733000Y-42227584D01*
X127006460Y-42227584D01*
X127049926Y-42541733D01*
X127153844Y-42841367D01*
X127243571Y-43009234D01*
X127505416Y-43101979D01*
X128443395Y-42164000D01*
X128802605Y-42164000D01*
X129740584Y-43101979D01*
X130002429Y-43009234D01*
X130002614Y-43008852D01*
X138438457Y-43008852D01*
X140462000Y-45032395D01*
X142485543Y-43008852D01*
X142209373Y-42590882D01*
X141664443Y-42300351D01*
X141073304Y-42121713D01*
X140458672Y-42061832D01*
X139844169Y-42123010D01*
X139253408Y-42302897D01*
X138714627Y-42590882D01*
X138438457Y-43008852D01*
X130002614Y-43008852D01*
X130140820Y-42723880D01*
X130220883Y-42417010D01*
X130239540Y-42100416D01*
X130196074Y-41786267D01*
X130092156Y-41486633D01*
X130002429Y-41318766D01*
X129740584Y-41226021D01*
X128802605Y-42164000D01*
X128443395Y-42164000D01*
X127505416Y-41226021D01*
X127243571Y-41318766D01*
X127105180Y-41604120D01*
X127025117Y-41910990D01*
X127006460Y-42227584D01*
X126733000Y-42227584D01*
X126733000Y-42005429D01*
X126671129Y-41694380D01*
X126549763Y-41401379D01*
X126373569Y-41137685D01*
X126282300Y-41046416D01*
X127685021Y-41046416D01*
X128623000Y-41984395D01*
X129560979Y-41046416D01*
X129468234Y-40784571D01*
X129182880Y-40646180D01*
X128876010Y-40566117D01*
X128559416Y-40547460D01*
X128245267Y-40590926D01*
X127945633Y-40694844D01*
X127777766Y-40784571D01*
X127685021Y-41046416D01*
X126282300Y-41046416D01*
X126149315Y-40913431D01*
X125885621Y-40737237D01*
X125592620Y-40615871D01*
X125281571Y-40554000D01*
X124964429Y-40554000D01*
X124653380Y-40615871D01*
X124360379Y-40737237D01*
X124096685Y-40913431D01*
X123872431Y-41137685D01*
X123696237Y-41401379D01*
X123574871Y-41694380D01*
X123513000Y-42005429D01*
X112718588Y-42005429D01*
X114652162Y-41007294D01*
X116665982Y-40141737D01*
X118735841Y-39420390D01*
X120851427Y-38846845D01*
X123002200Y-38423961D01*
X125177445Y-38153842D01*
X127366326Y-38037837D01*
X129557938Y-38076521D01*
G37*
X129557938Y-38076521D02*
X131741361Y-38269704D01*
X133905719Y-38616421D01*
X136040228Y-39114946D01*
X138134255Y-39762796D01*
X140177367Y-40556742D01*
X142159385Y-41492830D01*
X144070436Y-42566395D01*
X145900998Y-43772090D01*
X147641952Y-45103907D01*
X149284624Y-46555212D01*
X150820831Y-48118774D01*
X152242919Y-49786803D01*
X153543803Y-51550991D01*
X154717004Y-53402546D01*
X155756675Y-55332246D01*
X156657637Y-57330476D01*
X157415402Y-59387282D01*
X158026194Y-61492416D01*
X158486971Y-63635391D01*
X158795437Y-65805531D01*
X158950055Y-67992024D01*
X158950055Y-70183976D01*
X158795437Y-72370469D01*
X158486971Y-74540609D01*
X158026194Y-76683584D01*
X157415402Y-78788718D01*
X156657637Y-80845524D01*
X155756675Y-82843754D01*
X154717004Y-84773454D01*
X153543803Y-86625009D01*
X152242919Y-88389197D01*
X150820831Y-90057226D01*
X149284624Y-91620788D01*
X147641952Y-93072093D01*
X145900998Y-94403910D01*
X144070436Y-95609605D01*
X142159385Y-96683170D01*
X140177367Y-97619258D01*
X138134255Y-98413204D01*
X136040228Y-99061054D01*
X133905719Y-99559579D01*
X131741361Y-99906296D01*
X129557938Y-100099479D01*
X127366326Y-100138163D01*
X125177445Y-100022158D01*
X123002200Y-99752039D01*
X120851427Y-99329155D01*
X118735841Y-98755610D01*
X116665982Y-98034263D01*
X114652162Y-97168706D01*
X112704414Y-96163254D01*
X112497257Y-96037061D01*
X116008200Y-96037061D01*
X116008200Y-96240939D01*
X116047974Y-96440898D01*
X116125995Y-96629256D01*
X116239263Y-96798774D01*
X116383426Y-96942937D01*
X116552944Y-97056205D01*
X116741302Y-97134226D01*
X116941261Y-97174000D01*
X117145139Y-97174000D01*
X117345098Y-97134226D01*
X117533456Y-97056205D01*
X117702974Y-96942937D01*
X117847137Y-96798774D01*
X117960405Y-96629256D01*
X118038426Y-96440898D01*
X118078200Y-96240939D01*
X118078200Y-96037061D01*
X118038426Y-95837102D01*
X117960405Y-95648744D01*
X117847137Y-95479226D01*
X117702974Y-95335063D01*
X117533456Y-95221795D01*
X117345098Y-95143774D01*
X117145139Y-95104000D01*
X116941261Y-95104000D01*
X116741302Y-95143774D01*
X116552944Y-95221795D01*
X116383426Y-95335063D01*
X116239263Y-95479226D01*
X116125995Y-95648744D01*
X116047974Y-95837102D01*
X116008200Y-96037061D01*
X112497257Y-96037061D01*
X110832442Y-95022913D01*
X109045571Y-93753367D01*
X107352703Y-92360938D01*
X106910795Y-91941829D01*
X125697400Y-91941829D01*
X125697400Y-92258971D01*
X125759271Y-92570020D01*
X125880637Y-92863021D01*
X126056831Y-93126715D01*
X126281085Y-93350969D01*
X126544779Y-93527163D01*
X126837780Y-93648529D01*
X127148829Y-93710400D01*
X127465971Y-93710400D01*
X127777020Y-93648529D01*
X128070021Y-93527163D01*
X128333715Y-93350969D01*
X128466700Y-93217984D01*
X129869421Y-93217984D01*
X129962166Y-93479829D01*
X130247520Y-93618220D01*
X130554390Y-93698283D01*
X130870984Y-93716940D01*
X131185133Y-93673474D01*
X131484767Y-93569556D01*
X131652634Y-93479829D01*
X131745379Y-93217984D01*
X130807400Y-92280005D01*
X129869421Y-93217984D01*
X128466700Y-93217984D01*
X128557969Y-93126715D01*
X128734163Y-92863021D01*
X128855529Y-92570020D01*
X128917400Y-92258971D01*
X128917400Y-92163984D01*
X129190860Y-92163984D01*
X129234326Y-92478133D01*
X129338244Y-92777767D01*
X129427971Y-92945634D01*
X129689816Y-93038379D01*
X130627795Y-92100400D01*
X130987005Y-92100400D01*
X131924984Y-93038379D01*
X132186829Y-92945634D01*
X132325220Y-92660280D01*
X132405283Y-92353410D01*
X132423940Y-92036816D01*
X132380474Y-91722667D01*
X132276556Y-91423033D01*
X132186829Y-91255166D01*
X131924984Y-91162421D01*
X130987005Y-92100400D01*
X130627795Y-92100400D01*
X129689816Y-91162421D01*
X129427971Y-91255166D01*
X129289580Y-91540520D01*
X129209517Y-91847390D01*
X129190860Y-92163984D01*
X128917400Y-92163984D01*
X128917400Y-91941829D01*
X128855529Y-91630780D01*
X128734163Y-91337779D01*
X128557969Y-91074085D01*
X128466700Y-90982816D01*
X129869421Y-90982816D01*
X130807400Y-91920795D01*
X131745379Y-90982816D01*
X131652634Y-90720971D01*
X131367280Y-90582580D01*
X131060410Y-90502517D01*
X130743816Y-90483860D01*
X130429667Y-90527326D01*
X130130033Y-90631244D01*
X129962166Y-90720971D01*
X129869421Y-90982816D01*
X128466700Y-90982816D01*
X128333715Y-90849831D01*
X128070021Y-90673637D01*
X127777020Y-90552271D01*
X127465971Y-90490400D01*
X127148829Y-90490400D01*
X126837780Y-90552271D01*
X126544779Y-90673637D01*
X126281085Y-90849831D01*
X126056831Y-91074085D01*
X125880637Y-91337779D01*
X125759271Y-91630780D01*
X125697400Y-91941829D01*
X106910795Y-91941829D01*
X105762273Y-90852565D01*
X104282204Y-89235762D01*
X102919869Y-87518584D01*
X101682055Y-85709586D01*
X100574930Y-83817780D01*
X99604009Y-81852590D01*
X98774128Y-79823809D01*
X98089423Y-77741541D01*
X97553305Y-75616163D01*
X97168444Y-73458261D01*
X96936757Y-71278587D01*
X96859400Y-69088000D01*
X96936757Y-66897413D01*
X97168444Y-64717739D01*
X97199954Y-64541061D01*
X114230200Y-64541061D01*
X114230200Y-64744939D01*
X114269974Y-64944898D01*
X114347995Y-65133256D01*
X114461263Y-65302774D01*
X114605426Y-65446937D01*
X114774944Y-65560205D01*
X114963302Y-65638226D01*
X115163261Y-65678000D01*
X115367139Y-65678000D01*
X115567098Y-65638226D01*
X115755456Y-65560205D01*
X115924974Y-65446937D01*
X116069137Y-65302774D01*
X116182405Y-65133256D01*
X116260426Y-64944898D01*
X116300200Y-64744939D01*
X116300200Y-64576621D01*
X121982280Y-64576621D01*
X121982280Y-64780499D01*
X122022054Y-64980458D01*
X122100075Y-65168816D01*
X122213343Y-65338334D01*
X122357506Y-65482497D01*
X122527024Y-65595765D01*
X122715382Y-65673786D01*
X122915341Y-65713560D01*
X123119219Y-65713560D01*
X123319178Y-65673786D01*
X123507536Y-65595765D01*
X123677054Y-65482497D01*
X123821217Y-65338334D01*
X123934485Y-65168816D01*
X124012506Y-64980458D01*
X124052280Y-64780499D01*
X124052280Y-64576621D01*
X124012506Y-64376662D01*
X123934485Y-64188304D01*
X123821217Y-64018786D01*
X123677054Y-63874623D01*
X123507536Y-63761355D01*
X123319178Y-63683334D01*
X123119219Y-63643560D01*
X122915341Y-63643560D01*
X122715382Y-63683334D01*
X122527024Y-63761355D01*
X122357506Y-63874623D01*
X122213343Y-64018786D01*
X122100075Y-64188304D01*
X122022054Y-64376662D01*
X121982280Y-64576621D01*
X116300200Y-64576621D01*
X116300200Y-64541061D01*
X116260426Y-64341102D01*
X116182405Y-64152744D01*
X116069137Y-63983226D01*
X115924974Y-63839063D01*
X115755456Y-63725795D01*
X115567098Y-63647774D01*
X115367139Y-63608000D01*
X115163261Y-63608000D01*
X114963302Y-63647774D01*
X114774944Y-63725795D01*
X114605426Y-63839063D01*
X114461263Y-63983226D01*
X114347995Y-64152744D01*
X114269974Y-64341102D01*
X114230200Y-64541061D01*
X97199954Y-64541061D01*
X97553305Y-62559837D01*
X97713475Y-61924861D01*
X113747600Y-61924861D01*
X113747600Y-62128739D01*
X113787374Y-62328698D01*
X113865395Y-62517056D01*
X113978663Y-62686574D01*
X114122826Y-62830737D01*
X114292344Y-62944005D01*
X114480702Y-63022026D01*
X114680661Y-63061800D01*
X114884539Y-63061800D01*
X115084498Y-63022026D01*
X115258175Y-62950086D01*
X115392826Y-63084737D01*
X115562344Y-63198005D01*
X115750702Y-63276026D01*
X115950661Y-63315800D01*
X116154539Y-63315800D01*
X116354498Y-63276026D01*
X116406069Y-63254664D01*
X116518663Y-63423174D01*
X116662826Y-63567337D01*
X116832344Y-63680605D01*
X117020702Y-63758626D01*
X117220661Y-63798400D01*
X117424539Y-63798400D01*
X117624498Y-63758626D01*
X117812856Y-63680605D01*
X117982374Y-63567337D01*
X118126537Y-63423174D01*
X118239805Y-63253656D01*
X118317826Y-63065298D01*
X118357600Y-62865339D01*
X118357600Y-62661461D01*
X118317826Y-62461502D01*
X118239805Y-62273144D01*
X118126537Y-62103626D01*
X117982374Y-61959463D01*
X117812856Y-61846195D01*
X117624498Y-61768174D01*
X117424539Y-61728400D01*
X117220661Y-61728400D01*
X117020702Y-61768174D01*
X116969131Y-61789536D01*
X116856537Y-61621026D01*
X116712374Y-61476863D01*
X116542856Y-61363595D01*
X116354498Y-61285574D01*
X116154539Y-61245800D01*
X115950661Y-61245800D01*
X115750702Y-61285574D01*
X115577025Y-61357514D01*
X115442374Y-61222863D01*
X115272856Y-61109595D01*
X115084498Y-61031574D01*
X114884539Y-60991800D01*
X114680661Y-60991800D01*
X114480702Y-61031574D01*
X114292344Y-61109595D01*
X114122826Y-61222863D01*
X113978663Y-61367026D01*
X113865395Y-61536544D01*
X113787374Y-61724902D01*
X113747600Y-61924861D01*
X97713475Y-61924861D01*
X98089423Y-60434459D01*
X98476319Y-59257861D01*
X103714600Y-59257861D01*
X103714600Y-59461739D01*
X103754374Y-59661698D01*
X103832395Y-59850056D01*
X103945663Y-60019574D01*
X104089826Y-60163737D01*
X104259344Y-60277005D01*
X104447702Y-60355026D01*
X104647661Y-60394800D01*
X104851539Y-60394800D01*
X105051498Y-60355026D01*
X105239856Y-60277005D01*
X105409374Y-60163737D01*
X105553537Y-60019574D01*
X105666805Y-59850056D01*
X105744826Y-59661698D01*
X105784600Y-59461739D01*
X105784600Y-59257861D01*
X105744826Y-59057902D01*
X105714604Y-58984940D01*
X131839600Y-58984940D01*
X131839600Y-59277460D01*
X131896668Y-59564358D01*
X132008610Y-59834611D01*
X132171125Y-60077832D01*
X132377968Y-60284675D01*
X132621189Y-60447190D01*
X132891442Y-60559132D01*
X133178340Y-60616200D01*
X133470860Y-60616200D01*
X133757758Y-60559132D01*
X134028011Y-60447190D01*
X134271232Y-60284675D01*
X134403087Y-60152820D01*
X134425098Y-60225380D01*
X134484063Y-60335694D01*
X134563415Y-60432385D01*
X134660106Y-60511737D01*
X134770420Y-60570702D01*
X134890118Y-60607012D01*
X135014600Y-60619272D01*
X136714600Y-60619272D01*
X136839082Y-60607012D01*
X136958780Y-60570702D01*
X137069094Y-60511737D01*
X137165785Y-60432385D01*
X137245137Y-60335694D01*
X137304102Y-60225380D01*
X137340412Y-60105682D01*
X137352672Y-59981200D01*
X137352672Y-58281200D01*
X137340412Y-58156718D01*
X137304102Y-58037020D01*
X137245137Y-57926706D01*
X137165785Y-57830015D01*
X137069094Y-57750663D01*
X136958780Y-57691698D01*
X136839082Y-57655388D01*
X136714600Y-57643128D01*
X135014600Y-57643128D01*
X134890118Y-57655388D01*
X134770420Y-57691698D01*
X134660106Y-57750663D01*
X134563415Y-57830015D01*
X134484063Y-57926706D01*
X134425098Y-58037020D01*
X134403087Y-58109580D01*
X134271232Y-57977725D01*
X134028011Y-57815210D01*
X133757758Y-57703268D01*
X133470860Y-57646200D01*
X133178340Y-57646200D01*
X132891442Y-57703268D01*
X132621189Y-57815210D01*
X132377968Y-57977725D01*
X132171125Y-58184568D01*
X132008610Y-58427789D01*
X131896668Y-58698042D01*
X131839600Y-58984940D01*
X105714604Y-58984940D01*
X105666805Y-58869544D01*
X105553537Y-58700026D01*
X105409374Y-58555863D01*
X105239856Y-58442595D01*
X105051498Y-58364574D01*
X104851539Y-58324800D01*
X104647661Y-58324800D01*
X104447702Y-58364574D01*
X104259344Y-58442595D01*
X104089826Y-58555863D01*
X103945663Y-58700026D01*
X103832395Y-58869544D01*
X103754374Y-59057902D01*
X103714600Y-59257861D01*
X98476319Y-59257861D01*
X98774128Y-58352191D01*
X99604009Y-56323410D01*
X99873443Y-55778061D01*
X123552000Y-55778061D01*
X123552000Y-55981939D01*
X123591774Y-56181898D01*
X123669795Y-56370256D01*
X123783063Y-56539774D01*
X123927226Y-56683937D01*
X124096744Y-56797205D01*
X124285102Y-56875226D01*
X124485061Y-56915000D01*
X124688939Y-56915000D01*
X124888898Y-56875226D01*
X125077256Y-56797205D01*
X125246774Y-56683937D01*
X125390937Y-56539774D01*
X125504205Y-56370256D01*
X125582226Y-56181898D01*
X125622000Y-55981939D01*
X125622000Y-55778061D01*
X125582226Y-55578102D01*
X125504205Y-55389744D01*
X125390937Y-55220226D01*
X125246774Y-55076063D01*
X125077256Y-54962795D01*
X124888898Y-54884774D01*
X124688939Y-54845000D01*
X124485061Y-54845000D01*
X124285102Y-54884774D01*
X124096744Y-54962795D01*
X123927226Y-55076063D01*
X123783063Y-55220226D01*
X123669795Y-55389744D01*
X123591774Y-55578102D01*
X123552000Y-55778061D01*
X99873443Y-55778061D01*
X100574930Y-54358220D01*
X101682055Y-52466414D01*
X102919869Y-50657416D01*
X104282204Y-48940238D01*
X104706448Y-48476800D01*
X119365128Y-48476800D01*
X119365128Y-50176800D01*
X119377388Y-50301282D01*
X119413698Y-50420980D01*
X119472663Y-50531294D01*
X119552015Y-50627985D01*
X119648706Y-50707337D01*
X119759020Y-50766302D01*
X119878718Y-50802612D01*
X120003200Y-50814872D01*
X121703200Y-50814872D01*
X121827682Y-50802612D01*
X121947380Y-50766302D01*
X122057694Y-50707337D01*
X122154385Y-50627985D01*
X122233737Y-50531294D01*
X122292702Y-50420980D01*
X122329012Y-50301282D01*
X122341272Y-50176800D01*
X122341272Y-48476800D01*
X122329012Y-48352318D01*
X122292702Y-48232620D01*
X122233737Y-48122306D01*
X122154385Y-48025615D01*
X122057694Y-47946263D01*
X121947380Y-47887298D01*
X121827682Y-47850988D01*
X121703200Y-47838728D01*
X120003200Y-47838728D01*
X119878718Y-47850988D01*
X119759020Y-47887298D01*
X119648706Y-47946263D01*
X119552015Y-48025615D01*
X119472663Y-48122306D01*
X119413698Y-48232620D01*
X119377388Y-48352318D01*
X119365128Y-48476800D01*
X104706448Y-48476800D01*
X105678316Y-47415148D01*
X138438457Y-47415148D01*
X138714627Y-47833118D01*
X139259557Y-48123649D01*
X139850696Y-48302287D01*
X140465328Y-48362168D01*
X141079831Y-48300990D01*
X141670592Y-48121103D01*
X142209373Y-47833118D01*
X142485543Y-47415148D01*
X140462000Y-45391605D01*
X138438457Y-47415148D01*
X105678316Y-47415148D01*
X105762273Y-47323435D01*
X107352703Y-45815062D01*
X108479866Y-44887940D01*
X112459400Y-44887940D01*
X112459400Y-45180460D01*
X112516468Y-45467358D01*
X112628410Y-45737611D01*
X112790925Y-45980832D01*
X112997768Y-46187675D01*
X113240989Y-46350190D01*
X113511242Y-46462132D01*
X113798140Y-46519200D01*
X114090660Y-46519200D01*
X114377558Y-46462132D01*
X114647811Y-46350190D01*
X114891032Y-46187675D01*
X115097875Y-45980832D01*
X115214400Y-45806440D01*
X115330925Y-45980832D01*
X115537768Y-46187675D01*
X115780989Y-46350190D01*
X116051242Y-46462132D01*
X116338140Y-46519200D01*
X116630660Y-46519200D01*
X116917558Y-46462132D01*
X117187811Y-46350190D01*
X117431032Y-46187675D01*
X117562887Y-46055820D01*
X117584898Y-46128380D01*
X117643863Y-46238694D01*
X117723215Y-46335385D01*
X117819906Y-46414737D01*
X117930220Y-46473702D01*
X118049918Y-46510012D01*
X118174400Y-46522272D01*
X119874400Y-46522272D01*
X119998882Y-46510012D01*
X120118580Y-46473702D01*
X120228894Y-46414737D01*
X120325585Y-46335385D01*
X120404937Y-46238694D01*
X120463902Y-46128380D01*
X120500212Y-46008682D01*
X120512472Y-45884200D01*
X120512472Y-45215328D01*
X137311832Y-45215328D01*
X137373010Y-45829831D01*
X137552897Y-46420592D01*
X137840882Y-46959373D01*
X138258852Y-47235543D01*
X140282395Y-45212000D01*
X140641605Y-45212000D01*
X142665148Y-47235543D01*
X143083118Y-46959373D01*
X143373649Y-46414443D01*
X143552287Y-45823304D01*
X143612168Y-45208672D01*
X143550990Y-44594169D01*
X143371103Y-44003408D01*
X143083118Y-43464627D01*
X142665148Y-43188457D01*
X140641605Y-45212000D01*
X140282395Y-45212000D01*
X138258852Y-43188457D01*
X137840882Y-43464627D01*
X137550351Y-44009557D01*
X137371713Y-44600696D01*
X137311832Y-45215328D01*
X120512472Y-45215328D01*
X120512472Y-44184200D01*
X120500212Y-44059718D01*
X120463902Y-43940020D01*
X120404937Y-43829706D01*
X120325585Y-43733015D01*
X120228894Y-43653663D01*
X120118580Y-43594698D01*
X119998882Y-43558388D01*
X119874400Y-43546128D01*
X118174400Y-43546128D01*
X118049918Y-43558388D01*
X117930220Y-43594698D01*
X117819906Y-43653663D01*
X117723215Y-43733015D01*
X117643863Y-43829706D01*
X117584898Y-43940020D01*
X117562887Y-44012580D01*
X117431032Y-43880725D01*
X117187811Y-43718210D01*
X116917558Y-43606268D01*
X116630660Y-43549200D01*
X116338140Y-43549200D01*
X116051242Y-43606268D01*
X115780989Y-43718210D01*
X115537768Y-43880725D01*
X115330925Y-44087568D01*
X115214400Y-44261960D01*
X115097875Y-44087568D01*
X114891032Y-43880725D01*
X114647811Y-43718210D01*
X114377558Y-43606268D01*
X114090660Y-43549200D01*
X113798140Y-43549200D01*
X113511242Y-43606268D01*
X113240989Y-43718210D01*
X112997768Y-43880725D01*
X112790925Y-44087568D01*
X112628410Y-44330789D01*
X112516468Y-44601042D01*
X112459400Y-44887940D01*
X108479866Y-44887940D01*
X109045571Y-44422633D01*
X110832442Y-43153087D01*
X112704414Y-42012746D01*
X112718588Y-42005429D01*
X123513000Y-42005429D01*
X123513000Y-42322571D01*
X123574871Y-42633620D01*
X123696237Y-42926621D01*
X123872431Y-43190315D01*
X124096685Y-43414569D01*
X124360379Y-43590763D01*
X124653380Y-43712129D01*
X124964429Y-43774000D01*
X125281571Y-43774000D01*
X125592620Y-43712129D01*
X125885621Y-43590763D01*
X126149315Y-43414569D01*
X126282300Y-43281584D01*
X127685021Y-43281584D01*
X127777766Y-43543429D01*
X128063120Y-43681820D01*
X128369990Y-43761883D01*
X128686584Y-43780540D01*
X129000733Y-43737074D01*
X129300367Y-43633156D01*
X129468234Y-43543429D01*
X129560979Y-43281584D01*
X128623000Y-42343605D01*
X127685021Y-43281584D01*
X126282300Y-43281584D01*
X126373569Y-43190315D01*
X126549763Y-42926621D01*
X126671129Y-42633620D01*
X126733000Y-42322571D01*
X126733000Y-42227584D01*
X127006460Y-42227584D01*
X127049926Y-42541733D01*
X127153844Y-42841367D01*
X127243571Y-43009234D01*
X127505416Y-43101979D01*
X128443395Y-42164000D01*
X128802605Y-42164000D01*
X129740584Y-43101979D01*
X130002429Y-43009234D01*
X130002614Y-43008852D01*
X138438457Y-43008852D01*
X140462000Y-45032395D01*
X142485543Y-43008852D01*
X142209373Y-42590882D01*
X141664443Y-42300351D01*
X141073304Y-42121713D01*
X140458672Y-42061832D01*
X139844169Y-42123010D01*
X139253408Y-42302897D01*
X138714627Y-42590882D01*
X138438457Y-43008852D01*
X130002614Y-43008852D01*
X130140820Y-42723880D01*
X130220883Y-42417010D01*
X130239540Y-42100416D01*
X130196074Y-41786267D01*
X130092156Y-41486633D01*
X130002429Y-41318766D01*
X129740584Y-41226021D01*
X128802605Y-42164000D01*
X128443395Y-42164000D01*
X127505416Y-41226021D01*
X127243571Y-41318766D01*
X127105180Y-41604120D01*
X127025117Y-41910990D01*
X127006460Y-42227584D01*
X126733000Y-42227584D01*
X126733000Y-42005429D01*
X126671129Y-41694380D01*
X126549763Y-41401379D01*
X126373569Y-41137685D01*
X126282300Y-41046416D01*
X127685021Y-41046416D01*
X128623000Y-41984395D01*
X129560979Y-41046416D01*
X129468234Y-40784571D01*
X129182880Y-40646180D01*
X128876010Y-40566117D01*
X128559416Y-40547460D01*
X128245267Y-40590926D01*
X127945633Y-40694844D01*
X127777766Y-40784571D01*
X127685021Y-41046416D01*
X126282300Y-41046416D01*
X126149315Y-40913431D01*
X125885621Y-40737237D01*
X125592620Y-40615871D01*
X125281571Y-40554000D01*
X124964429Y-40554000D01*
X124653380Y-40615871D01*
X124360379Y-40737237D01*
X124096685Y-40913431D01*
X123872431Y-41137685D01*
X123696237Y-41401379D01*
X123574871Y-41694380D01*
X123513000Y-42005429D01*
X112718588Y-42005429D01*
X114652162Y-41007294D01*
X116665982Y-40141737D01*
X118735841Y-39420390D01*
X120851427Y-38846845D01*
X123002200Y-38423961D01*
X125177445Y-38153842D01*
X127366326Y-38037837D01*
X129557938Y-38076521D01*
M02*
