G04 #@! TF.GenerationSoftware,KiCad,Pcbnew,(5.1.5)-3*
G04 #@! TF.CreationDate,2021-11-18T20:40:18-08:00*
G04 #@! TF.ProjectId,nixie_supply_v1,6e697869-655f-4737-9570-706c795f7631,rev?*
G04 #@! TF.SameCoordinates,Original*
G04 #@! TF.FileFunction,Legend,Top*
G04 #@! TF.FilePolarity,Positive*
%FSLAX46Y46*%
G04 Gerber Fmt 4.6, Leading zero omitted, Abs format (unit mm)*
G04 Created by KiCad (PCBNEW (5.1.5)-3) date 2021-11-18 20:40:18*
%MOMM*%
%LPD*%
G04 APERTURE LIST*
%ADD10C,0.300000*%
%ADD11C,0.120000*%
%ADD12C,0.100000*%
%ADD13C,0.400000*%
%ADD14C,0.200000*%
%ADD15C,0.127000*%
%ADD16C,0.160000*%
%ADD17C,0.150000*%
G04 APERTURE END LIST*
D10*
X126682571Y-96754142D02*
X127825428Y-96754142D01*
X127254000Y-97325571D02*
X127254000Y-96182714D01*
X121348571Y-40112142D02*
X122491428Y-40112142D01*
X121920000Y-40683571D02*
X121920000Y-39540714D01*
X143758000Y-50443571D02*
X143758000Y-51515000D01*
X143686571Y-51729285D01*
X143543714Y-51872142D01*
X143329428Y-51943571D01*
X143186571Y-51943571D01*
X144758000Y-50443571D02*
X145043714Y-50443571D01*
X145186571Y-50515000D01*
X145329428Y-50657857D01*
X145400857Y-50943571D01*
X145400857Y-51443571D01*
X145329428Y-51729285D01*
X145186571Y-51872142D01*
X145043714Y-51943571D01*
X144758000Y-51943571D01*
X144615142Y-51872142D01*
X144472285Y-51729285D01*
X144400857Y-51443571D01*
X144400857Y-50943571D01*
X144472285Y-50657857D01*
X144615142Y-50515000D01*
X144758000Y-50443571D01*
X146758000Y-51943571D02*
X146043714Y-51943571D01*
X146043714Y-50443571D01*
X147043714Y-50443571D02*
X147900857Y-50443571D01*
X147472285Y-51943571D02*
X147472285Y-50443571D01*
X143222285Y-52993571D02*
X143722285Y-54493571D01*
X144222285Y-52993571D01*
X145508000Y-54493571D02*
X144650857Y-54493571D01*
X145079428Y-54493571D02*
X145079428Y-52993571D01*
X144936571Y-53207857D01*
X144793714Y-53350714D01*
X144650857Y-53422142D01*
X146150857Y-54350714D02*
X146222285Y-54422142D01*
X146150857Y-54493571D01*
X146079428Y-54422142D01*
X146150857Y-54350714D01*
X146150857Y-54493571D01*
X147150857Y-52993571D02*
X147293714Y-52993571D01*
X147436571Y-53065000D01*
X147508000Y-53136428D01*
X147579428Y-53279285D01*
X147650857Y-53565000D01*
X147650857Y-53922142D01*
X147579428Y-54207857D01*
X147508000Y-54350714D01*
X147436571Y-54422142D01*
X147293714Y-54493571D01*
X147150857Y-54493571D01*
X147008000Y-54422142D01*
X146936571Y-54350714D01*
X146865142Y-54207857D01*
X146793714Y-53922142D01*
X146793714Y-53565000D01*
X146865142Y-53279285D01*
X146936571Y-53136428D01*
X147008000Y-53065000D01*
X147150857Y-52993571D01*
D11*
X159664400Y-69088000D02*
G75*
G03X159664400Y-69088000I-31750000J0D01*
G01*
D12*
G36*
X148556000Y-55029200D02*
G01*
X149165600Y-52489200D01*
X150130800Y-52489200D01*
X148556000Y-55029200D01*
G37*
X148556000Y-55029200D02*
X149165600Y-52489200D01*
X150130800Y-52489200D01*
X148556000Y-55029200D01*
G36*
X149775200Y-53048000D02*
G01*
X148606800Y-53048000D01*
X148708400Y-52489200D01*
X150130800Y-52489200D01*
X149775200Y-53048000D01*
G37*
X149775200Y-53048000D02*
X148606800Y-53048000D01*
X148708400Y-52489200D01*
X150130800Y-52489200D01*
X149775200Y-53048000D01*
G36*
X148606800Y-53048000D02*
G01*
X149064000Y-50508000D01*
X150537200Y-50508000D01*
X148606800Y-53048000D01*
G37*
X148606800Y-53048000D02*
X149064000Y-50508000D01*
X150537200Y-50508000D01*
X148606800Y-53048000D01*
D11*
X129848560Y-56799920D02*
X129848560Y-50789920D01*
X136668560Y-54549920D02*
X136668560Y-50789920D01*
X129848560Y-50789920D02*
X131108560Y-50789920D01*
X136668560Y-50789920D02*
X135408560Y-50789920D01*
X137194600Y-57801200D02*
X137194600Y-59131200D01*
X135864600Y-57801200D02*
X137194600Y-57801200D01*
X134594600Y-57801200D02*
X134594600Y-60461200D01*
X134594600Y-60461200D02*
X131994600Y-60461200D01*
X134594600Y-57801200D02*
X131994600Y-57801200D01*
X131994600Y-57801200D02*
X131994600Y-60461200D01*
D13*
X126657400Y-90300400D02*
G75*
G03X126657400Y-90300400I-100000J0D01*
G01*
D14*
X125457400Y-88580400D02*
X125457400Y-88000400D01*
X125057400Y-88505400D02*
X125457400Y-88580400D01*
X125057400Y-89355400D02*
X125057400Y-88505400D01*
X125457400Y-89280400D02*
X125057400Y-89355400D01*
X125457400Y-94320400D02*
X125457400Y-89280400D01*
X125057400Y-94245400D02*
X125457400Y-94320400D01*
X125057400Y-95095400D02*
X125057400Y-94245400D01*
X125457400Y-95020400D02*
X125057400Y-95095400D01*
X125457400Y-95600400D02*
X125457400Y-95020400D01*
X132657400Y-95600400D02*
X125457400Y-95600400D01*
X132657400Y-88000400D02*
X132657400Y-95600400D01*
X125457400Y-88000400D02*
X132657400Y-88000400D01*
D13*
X124473000Y-40364000D02*
G75*
G03X124473000Y-40364000I-100000J0D01*
G01*
D14*
X123273000Y-38644000D02*
X123273000Y-38064000D01*
X122873000Y-38569000D02*
X123273000Y-38644000D01*
X122873000Y-39419000D02*
X122873000Y-38569000D01*
X123273000Y-39344000D02*
X122873000Y-39419000D01*
X123273000Y-44384000D02*
X123273000Y-39344000D01*
X122873000Y-44309000D02*
X123273000Y-44384000D01*
X122873000Y-45159000D02*
X122873000Y-44309000D01*
X123273000Y-45084000D02*
X122873000Y-45159000D01*
X123273000Y-45664000D02*
X123273000Y-45084000D01*
X130473000Y-45664000D02*
X123273000Y-45664000D01*
X130473000Y-38064000D02*
X130473000Y-45664000D01*
X123273000Y-38064000D02*
X130473000Y-38064000D01*
D11*
X116961000Y-93513800D02*
X116961000Y-89213800D01*
X116961000Y-89213800D02*
X111261000Y-89213800D01*
X116961000Y-93513800D02*
X111261000Y-93513800D01*
X121368600Y-63004000D02*
X121368600Y-56884000D01*
X126738600Y-63004000D02*
X126738600Y-56884000D01*
X121718600Y-56884000D02*
X121368600Y-56884000D01*
X121668600Y-63004000D02*
X121368600Y-63004000D01*
X126438600Y-63004000D02*
X126738600Y-63004000D01*
X128572200Y-48463200D02*
G75*
G03X128572200Y-48463200I-1750000J0D01*
G01*
D12*
X114087600Y-59137400D02*
X114087600Y-59537400D01*
X114087600Y-59537400D02*
X114387600Y-59837400D01*
X114387600Y-59837400D02*
X114387600Y-60637400D01*
X118987600Y-60037400D02*
X119287600Y-60037400D01*
X119287600Y-60037400D02*
X119287600Y-59737400D01*
X114387600Y-55837400D02*
X114087600Y-55837400D01*
X114087600Y-55837400D02*
X114087600Y-56137400D01*
X118987600Y-55837400D02*
X119287600Y-55837400D01*
X119287600Y-55837400D02*
X119287600Y-56137400D01*
D15*
X124035200Y-83326800D02*
X109035200Y-83326800D01*
X109035200Y-83326800D02*
X109035200Y-66126800D01*
X109035200Y-66126800D02*
X124035200Y-66126800D01*
X124035200Y-66126800D02*
X124035200Y-83326800D01*
D16*
X122951500Y-81746800D02*
G75*
G03X122951500Y-81746800I-746300J0D01*
G01*
D11*
X110291378Y-50417800D02*
X109774222Y-50417800D01*
X110291378Y-48997800D02*
X109774222Y-48997800D01*
X110265978Y-51918800D02*
X109748822Y-51918800D01*
X110265978Y-53338800D02*
X109748822Y-53338800D01*
X110265978Y-56158200D02*
X109748822Y-56158200D01*
X110265978Y-54738200D02*
X109748822Y-54738200D01*
X110265978Y-57481400D02*
X109748822Y-57481400D01*
X110265978Y-58901400D02*
X109748822Y-58901400D01*
X110291378Y-61416000D02*
X109774222Y-61416000D01*
X110291378Y-59996000D02*
X109774222Y-59996000D01*
X124983021Y-65178400D02*
X125308579Y-65178400D01*
X124983021Y-64158400D02*
X125308579Y-64158400D01*
X125385100Y-53144639D02*
X125385100Y-52819081D01*
X126405100Y-53144639D02*
X126405100Y-52819081D01*
X111593800Y-86606464D02*
X111593800Y-85402336D01*
X114313800Y-86606464D02*
X114313800Y-85402336D01*
X115657800Y-86581064D02*
X115657800Y-85376936D01*
X118377800Y-86581064D02*
X118377800Y-85376936D01*
X122289400Y-86606464D02*
X122289400Y-85402336D01*
X119569400Y-86606464D02*
X119569400Y-85402336D01*
X112614400Y-43704200D02*
X112614400Y-46364200D01*
X117754400Y-43704200D02*
X112614400Y-43704200D01*
X117754400Y-46364200D02*
X112614400Y-46364200D01*
X117754400Y-43704200D02*
X117754400Y-46364200D01*
X119024400Y-43704200D02*
X120354400Y-43704200D01*
X120354400Y-43704200D02*
X120354400Y-45034200D01*
X119523200Y-50656800D02*
X122183200Y-50656800D01*
X119523200Y-50596800D02*
X119523200Y-50656800D01*
X122183200Y-50596800D02*
X122183200Y-50656800D01*
X119523200Y-50596800D02*
X122183200Y-50596800D01*
X119523200Y-49326800D02*
X119523200Y-47996800D01*
X119523200Y-47996800D02*
X120853200Y-47996800D01*
X120057200Y-94914600D02*
X122742200Y-94914600D01*
X120057200Y-92994600D02*
X120057200Y-94914600D01*
X122742200Y-92994600D02*
X120057200Y-92994600D01*
X105456222Y-54763600D02*
X105973378Y-54763600D01*
X105456222Y-56183600D02*
X105973378Y-56183600D01*
X115593400Y-52486779D02*
X115593400Y-52161221D01*
X116613400Y-52486779D02*
X116613400Y-52161221D01*
X115529579Y-49147000D02*
X115204021Y-49147000D01*
X115529579Y-50167000D02*
X115204021Y-50167000D01*
X112796822Y-63933000D02*
X113313978Y-63933000D01*
X112796822Y-65353000D02*
X113313978Y-65353000D01*
X117730200Y-94940622D02*
X117730200Y-95457778D01*
X119150200Y-94940622D02*
X119150200Y-95457778D01*
X121477821Y-95578200D02*
X121803379Y-95578200D01*
X121477821Y-96598200D02*
X121803379Y-96598200D01*
X122318864Y-91842000D02*
X121114736Y-91842000D01*
X122318864Y-90022000D02*
X121114736Y-90022000D01*
X143560800Y-58623200D02*
X138582400Y-58623200D01*
X138582400Y-58623200D02*
X138582400Y-61112400D01*
X138582400Y-61112400D02*
X129641600Y-61112400D01*
X129641600Y-61112400D02*
X129641600Y-86868000D01*
X129641600Y-86868000D02*
X152501600Y-86868000D01*
X152501600Y-86868000D02*
X152501600Y-61112400D01*
X152501600Y-61112400D02*
X143560800Y-61112400D01*
X143560800Y-61112400D02*
X143560800Y-58623200D01*
D17*
X127860062Y-53930846D02*
X127907681Y-53978465D01*
X127955300Y-54121322D01*
X127955300Y-54216560D01*
X127907681Y-54359418D01*
X127812443Y-54454656D01*
X127717205Y-54502275D01*
X127526729Y-54549894D01*
X127383872Y-54549894D01*
X127193396Y-54502275D01*
X127098158Y-54454656D01*
X127002920Y-54359418D01*
X126955300Y-54216560D01*
X126955300Y-54121322D01*
X127002920Y-53978465D01*
X127050539Y-53930846D01*
X127050539Y-53549894D02*
X127002920Y-53502275D01*
X126955300Y-53407037D01*
X126955300Y-53168941D01*
X127002920Y-53073703D01*
X127050539Y-53026084D01*
X127145777Y-52978465D01*
X127241015Y-52978465D01*
X127383872Y-53026084D01*
X127955300Y-53597513D01*
X127955300Y-52978465D01*
X137099135Y-53549300D02*
X137099135Y-54358824D01*
X137146754Y-54454062D01*
X137194373Y-54501681D01*
X137289611Y-54549300D01*
X137480087Y-54549300D01*
X137575325Y-54501681D01*
X137622944Y-54454062D01*
X137670563Y-54358824D01*
X137670563Y-53549300D01*
X138670563Y-54549300D02*
X138099135Y-54549300D01*
X138384849Y-54549300D02*
X138384849Y-53549300D01*
X138289611Y-53692158D01*
X138194373Y-53787396D01*
X138099135Y-53835015D01*
X140226753Y-56648622D02*
X140179134Y-56696241D01*
X140036277Y-56743860D01*
X139941039Y-56743860D01*
X139798181Y-56696241D01*
X139702943Y-56601003D01*
X139655324Y-56505765D01*
X139607705Y-56315289D01*
X139607705Y-56172432D01*
X139655324Y-55981956D01*
X139702943Y-55886718D01*
X139798181Y-55791480D01*
X139941039Y-55743860D01*
X140036277Y-55743860D01*
X140179134Y-55791480D01*
X140226753Y-55839099D01*
X141179134Y-56743860D02*
X140607705Y-56743860D01*
X140893420Y-56743860D02*
X140893420Y-55743860D01*
X140798181Y-55886718D01*
X140702943Y-55981956D01*
X140607705Y-56029575D01*
X131625600Y-60324857D02*
X130625600Y-60324857D01*
X131625600Y-59753428D01*
X130625600Y-59753428D01*
X130625600Y-59420095D02*
X130625600Y-58848666D01*
X131625600Y-59134380D02*
X130625600Y-59134380D01*
X130720839Y-58562952D02*
X130673220Y-58515333D01*
X130625600Y-58420095D01*
X130625600Y-58182000D01*
X130673220Y-58086761D01*
X130720839Y-58039142D01*
X130816077Y-57991523D01*
X130911315Y-57991523D01*
X131054172Y-58039142D01*
X131625600Y-58610571D01*
X131625600Y-57991523D01*
X133379886Y-94610940D02*
X133379886Y-95325226D01*
X133332267Y-95468083D01*
X133237029Y-95563321D01*
X133094172Y-95610940D01*
X132998934Y-95610940D01*
X134284648Y-94944274D02*
X134284648Y-95610940D01*
X134046553Y-94563321D02*
X133808458Y-95277607D01*
X134427505Y-95277607D01*
X121975286Y-42497760D02*
X121975286Y-43212046D01*
X121927667Y-43354903D01*
X121832429Y-43450141D01*
X121689572Y-43497760D01*
X121594334Y-43497760D01*
X122975286Y-43497760D02*
X122403858Y-43497760D01*
X122689572Y-43497760D02*
X122689572Y-42497760D01*
X122594334Y-42640618D01*
X122499096Y-42735856D01*
X122403858Y-42783475D01*
X112672904Y-94816180D02*
X112672904Y-93816180D01*
X112911000Y-93816180D01*
X113053857Y-93863800D01*
X113149095Y-93959038D01*
X113196714Y-94054276D01*
X113244333Y-94244752D01*
X113244333Y-94387609D01*
X113196714Y-94578085D01*
X113149095Y-94673323D01*
X113053857Y-94768561D01*
X112911000Y-94816180D01*
X112672904Y-94816180D01*
X114196714Y-94816180D02*
X113625285Y-94816180D01*
X113911000Y-94816180D02*
X113911000Y-93816180D01*
X113815761Y-93959038D01*
X113720523Y-94054276D01*
X113625285Y-94101895D01*
X127704861Y-63465959D02*
X127609623Y-63418340D01*
X127514385Y-63323101D01*
X127371528Y-63180244D01*
X127276290Y-63132625D01*
X127181052Y-63132625D01*
X127228671Y-63370720D02*
X127133433Y-63323101D01*
X127038195Y-63227863D01*
X126990576Y-63037387D01*
X126990576Y-62704054D01*
X127038195Y-62513578D01*
X127133433Y-62418340D01*
X127228671Y-62370720D01*
X127419147Y-62370720D01*
X127514385Y-62418340D01*
X127609623Y-62513578D01*
X127657242Y-62704054D01*
X127657242Y-63037387D01*
X127609623Y-63227863D01*
X127514385Y-63323101D01*
X127419147Y-63370720D01*
X127228671Y-63370720D01*
X128609623Y-63370720D02*
X128038195Y-63370720D01*
X128323909Y-63370720D02*
X128323909Y-62370720D01*
X128228671Y-62513578D01*
X128133433Y-62608816D01*
X128038195Y-62656435D01*
X128702275Y-46488100D02*
X129273703Y-46488100D01*
X128987989Y-47488100D02*
X128987989Y-46488100D01*
X129607037Y-47488100D02*
X129607037Y-46488100D01*
X129987989Y-46488100D01*
X130083227Y-46535720D01*
X130130846Y-46583339D01*
X130178465Y-46678577D01*
X130178465Y-46821434D01*
X130130846Y-46916672D01*
X130083227Y-46964291D01*
X129987989Y-47011910D01*
X129607037Y-47011910D01*
X131130846Y-47488100D02*
X130559418Y-47488100D01*
X130845132Y-47488100D02*
X130845132Y-46488100D01*
X130749894Y-46630958D01*
X130654656Y-46726196D01*
X130559418Y-46773815D01*
X117828155Y-53059080D02*
X117828155Y-53868604D01*
X117875774Y-53963842D01*
X117923393Y-54011461D01*
X118018631Y-54059080D01*
X118209107Y-54059080D01*
X118304345Y-54011461D01*
X118351964Y-53963842D01*
X118399583Y-53868604D01*
X118399583Y-53059080D01*
X118828155Y-53154319D02*
X118875774Y-53106700D01*
X118971012Y-53059080D01*
X119209107Y-53059080D01*
X119304345Y-53106700D01*
X119351964Y-53154319D01*
X119399583Y-53249557D01*
X119399583Y-53344795D01*
X119351964Y-53487652D01*
X118780536Y-54059080D01*
X119399583Y-54059080D01*
D15*
X124250927Y-82387822D02*
X124250927Y-83198289D01*
X124298602Y-83293638D01*
X124346276Y-83341313D01*
X124441625Y-83388987D01*
X124632323Y-83388987D01*
X124727672Y-83341313D01*
X124775347Y-83293638D01*
X124823021Y-83198289D01*
X124823021Y-82387822D01*
X125204418Y-82387822D02*
X125824186Y-82387822D01*
X125490465Y-82769219D01*
X125633488Y-82769219D01*
X125728837Y-82816893D01*
X125776512Y-82864568D01*
X125824186Y-82959917D01*
X125824186Y-83198289D01*
X125776512Y-83293638D01*
X125728837Y-83341313D01*
X125633488Y-83388987D01*
X125347441Y-83388987D01*
X125252092Y-83341313D01*
X125204418Y-83293638D01*
D17*
X110798313Y-48462202D02*
X110750694Y-48509821D01*
X110607837Y-48557440D01*
X110512599Y-48557440D01*
X110369741Y-48509821D01*
X110274503Y-48414583D01*
X110226884Y-48319345D01*
X110179265Y-48128869D01*
X110179265Y-47986012D01*
X110226884Y-47795536D01*
X110274503Y-47700298D01*
X110369741Y-47605060D01*
X110512599Y-47557440D01*
X110607837Y-47557440D01*
X110750694Y-47605060D01*
X110798313Y-47652679D01*
X111131646Y-47557440D02*
X111750694Y-47557440D01*
X111417360Y-47938393D01*
X111560218Y-47938393D01*
X111655456Y-47986012D01*
X111703075Y-48033631D01*
X111750694Y-48128869D01*
X111750694Y-48366964D01*
X111703075Y-48462202D01*
X111655456Y-48509821D01*
X111560218Y-48557440D01*
X111274503Y-48557440D01*
X111179265Y-48509821D01*
X111131646Y-48462202D01*
X112769922Y-52714186D02*
X112817541Y-52761805D01*
X112865160Y-52904662D01*
X112865160Y-52999900D01*
X112817541Y-53142758D01*
X112722303Y-53237996D01*
X112627065Y-53285615D01*
X112436589Y-53333234D01*
X112293732Y-53333234D01*
X112103256Y-53285615D01*
X112008018Y-53237996D01*
X111912780Y-53142758D01*
X111865160Y-52999900D01*
X111865160Y-52904662D01*
X111912780Y-52761805D01*
X111960399Y-52714186D01*
X112198494Y-51857043D02*
X112865160Y-51857043D01*
X111817541Y-52095139D02*
X112531827Y-52333234D01*
X112531827Y-51714186D01*
X112714042Y-55597086D02*
X112761661Y-55644705D01*
X112809280Y-55787562D01*
X112809280Y-55882800D01*
X112761661Y-56025658D01*
X112666423Y-56120896D01*
X112571185Y-56168515D01*
X112380709Y-56216134D01*
X112237852Y-56216134D01*
X112047376Y-56168515D01*
X111952138Y-56120896D01*
X111856900Y-56025658D01*
X111809280Y-55882800D01*
X111809280Y-55787562D01*
X111856900Y-55644705D01*
X111904519Y-55597086D01*
X111809280Y-54692324D02*
X111809280Y-55168515D01*
X112285471Y-55216134D01*
X112237852Y-55168515D01*
X112190233Y-55073277D01*
X112190233Y-54835181D01*
X112237852Y-54739943D01*
X112285471Y-54692324D01*
X112380709Y-54644705D01*
X112618804Y-54644705D01*
X112714042Y-54692324D01*
X112761661Y-54739943D01*
X112809280Y-54835181D01*
X112809280Y-55073277D01*
X112761661Y-55168515D01*
X112714042Y-55216134D01*
X112691182Y-58355526D02*
X112738801Y-58403145D01*
X112786420Y-58546002D01*
X112786420Y-58641240D01*
X112738801Y-58784098D01*
X112643563Y-58879336D01*
X112548325Y-58926955D01*
X112357849Y-58974574D01*
X112214992Y-58974574D01*
X112024516Y-58926955D01*
X111929278Y-58879336D01*
X111834040Y-58784098D01*
X111786420Y-58641240D01*
X111786420Y-58546002D01*
X111834040Y-58403145D01*
X111881659Y-58355526D01*
X111786420Y-57498383D02*
X111786420Y-57688860D01*
X111834040Y-57784098D01*
X111881659Y-57831717D01*
X112024516Y-57926955D01*
X112214992Y-57974574D01*
X112595944Y-57974574D01*
X112691182Y-57926955D01*
X112738801Y-57879336D01*
X112786420Y-57784098D01*
X112786420Y-57593621D01*
X112738801Y-57498383D01*
X112691182Y-57450764D01*
X112595944Y-57403145D01*
X112357849Y-57403145D01*
X112262611Y-57450764D01*
X112214992Y-57498383D01*
X112167373Y-57593621D01*
X112167373Y-57784098D01*
X112214992Y-57879336D01*
X112262611Y-57926955D01*
X112357849Y-57974574D01*
X103084333Y-58370742D02*
X103036714Y-58418361D01*
X102893857Y-58465980D01*
X102798619Y-58465980D01*
X102655761Y-58418361D01*
X102560523Y-58323123D01*
X102512904Y-58227885D01*
X102465285Y-58037409D01*
X102465285Y-57894552D01*
X102512904Y-57704076D01*
X102560523Y-57608838D01*
X102655761Y-57513600D01*
X102798619Y-57465980D01*
X102893857Y-57465980D01*
X103036714Y-57513600D01*
X103084333Y-57561219D01*
X103417666Y-57465980D02*
X104084333Y-57465980D01*
X103655761Y-58465980D01*
X112739442Y-60895526D02*
X112787061Y-60943145D01*
X112834680Y-61086002D01*
X112834680Y-61181240D01*
X112787061Y-61324098D01*
X112691823Y-61419336D01*
X112596585Y-61466955D01*
X112406109Y-61514574D01*
X112263252Y-61514574D01*
X112072776Y-61466955D01*
X111977538Y-61419336D01*
X111882300Y-61324098D01*
X111834680Y-61181240D01*
X111834680Y-61086002D01*
X111882300Y-60943145D01*
X111929919Y-60895526D01*
X112263252Y-60324098D02*
X112215633Y-60419336D01*
X112168014Y-60466955D01*
X112072776Y-60514574D01*
X112025157Y-60514574D01*
X111929919Y-60466955D01*
X111882300Y-60419336D01*
X111834680Y-60324098D01*
X111834680Y-60133621D01*
X111882300Y-60038383D01*
X111929919Y-59990764D01*
X112025157Y-59943145D01*
X112072776Y-59943145D01*
X112168014Y-59990764D01*
X112215633Y-60038383D01*
X112263252Y-60133621D01*
X112263252Y-60324098D01*
X112310871Y-60419336D01*
X112358490Y-60466955D01*
X112453728Y-60514574D01*
X112644204Y-60514574D01*
X112739442Y-60466955D01*
X112787061Y-60419336D01*
X112834680Y-60324098D01*
X112834680Y-60133621D01*
X112787061Y-60038383D01*
X112739442Y-59990764D01*
X112644204Y-59943145D01*
X112453728Y-59943145D01*
X112358490Y-59990764D01*
X112310871Y-60038383D01*
X112263252Y-60133621D01*
X125512533Y-66549542D02*
X125464914Y-66597161D01*
X125322057Y-66644780D01*
X125226819Y-66644780D01*
X125083961Y-66597161D01*
X124988723Y-66501923D01*
X124941104Y-66406685D01*
X124893485Y-66216209D01*
X124893485Y-66073352D01*
X124941104Y-65882876D01*
X124988723Y-65787638D01*
X125083961Y-65692400D01*
X125226819Y-65644780D01*
X125322057Y-65644780D01*
X125464914Y-65692400D01*
X125512533Y-65740019D01*
X125988723Y-66644780D02*
X126179200Y-66644780D01*
X126274438Y-66597161D01*
X126322057Y-66549542D01*
X126417295Y-66406685D01*
X126464914Y-66216209D01*
X126464914Y-65835257D01*
X126417295Y-65740019D01*
X126369676Y-65692400D01*
X126274438Y-65644780D01*
X126083961Y-65644780D01*
X125988723Y-65692400D01*
X125941104Y-65740019D01*
X125893485Y-65835257D01*
X125893485Y-66073352D01*
X125941104Y-66168590D01*
X125988723Y-66216209D01*
X126083961Y-66263828D01*
X126274438Y-66263828D01*
X126369676Y-66216209D01*
X126417295Y-66168590D01*
X126464914Y-66073352D01*
X126110762Y-55741842D02*
X126063143Y-55789461D01*
X125920286Y-55837080D01*
X125825048Y-55837080D01*
X125682191Y-55789461D01*
X125586953Y-55694223D01*
X125539334Y-55598985D01*
X125491715Y-55408509D01*
X125491715Y-55265652D01*
X125539334Y-55075176D01*
X125586953Y-54979938D01*
X125682191Y-54884700D01*
X125825048Y-54837080D01*
X125920286Y-54837080D01*
X126063143Y-54884700D01*
X126110762Y-54932319D01*
X127063143Y-55837080D02*
X126491715Y-55837080D01*
X126777429Y-55837080D02*
X126777429Y-54837080D01*
X126682191Y-54979938D01*
X126586953Y-55075176D01*
X126491715Y-55122795D01*
X127682191Y-54837080D02*
X127777429Y-54837080D01*
X127872667Y-54884700D01*
X127920286Y-54932319D01*
X127967905Y-55027557D01*
X128015524Y-55218033D01*
X128015524Y-55456128D01*
X127967905Y-55646604D01*
X127920286Y-55741842D01*
X127872667Y-55789461D01*
X127777429Y-55837080D01*
X127682191Y-55837080D01*
X127586953Y-55789461D01*
X127539334Y-55741842D01*
X127491715Y-55646604D01*
X127444096Y-55456128D01*
X127444096Y-55218033D01*
X127491715Y-55027557D01*
X127539334Y-54932319D01*
X127586953Y-54884700D01*
X127682191Y-54837080D01*
X111030022Y-86873317D02*
X111077641Y-86920936D01*
X111125260Y-87063793D01*
X111125260Y-87159031D01*
X111077641Y-87301888D01*
X110982403Y-87397126D01*
X110887165Y-87444745D01*
X110696689Y-87492364D01*
X110553832Y-87492364D01*
X110363356Y-87444745D01*
X110268118Y-87397126D01*
X110172880Y-87301888D01*
X110125260Y-87159031D01*
X110125260Y-87063793D01*
X110172880Y-86920936D01*
X110220499Y-86873317D01*
X111125260Y-85920936D02*
X111125260Y-86492364D01*
X111125260Y-86206650D02*
X110125260Y-86206650D01*
X110268118Y-86301888D01*
X110363356Y-86397126D01*
X110410975Y-86492364D01*
X111125260Y-84968555D02*
X111125260Y-85539983D01*
X111125260Y-85254269D02*
X110125260Y-85254269D01*
X110268118Y-85349507D01*
X110363356Y-85444745D01*
X110410975Y-85539983D01*
X117893862Y-89333342D02*
X117846243Y-89380961D01*
X117703386Y-89428580D01*
X117608148Y-89428580D01*
X117465291Y-89380961D01*
X117370053Y-89285723D01*
X117322434Y-89190485D01*
X117274815Y-89000009D01*
X117274815Y-88857152D01*
X117322434Y-88666676D01*
X117370053Y-88571438D01*
X117465291Y-88476200D01*
X117608148Y-88428580D01*
X117703386Y-88428580D01*
X117846243Y-88476200D01*
X117893862Y-88523819D01*
X118846243Y-89428580D02*
X118274815Y-89428580D01*
X118560529Y-89428580D02*
X118560529Y-88428580D01*
X118465291Y-88571438D01*
X118370053Y-88666676D01*
X118274815Y-88714295D01*
X119227196Y-88523819D02*
X119274815Y-88476200D01*
X119370053Y-88428580D01*
X119608148Y-88428580D01*
X119703386Y-88476200D01*
X119751005Y-88523819D01*
X119798624Y-88619057D01*
X119798624Y-88714295D01*
X119751005Y-88857152D01*
X119179577Y-89428580D01*
X119798624Y-89428580D01*
X121495582Y-89373982D02*
X121447963Y-89421601D01*
X121305106Y-89469220D01*
X121209868Y-89469220D01*
X121067011Y-89421601D01*
X120971773Y-89326363D01*
X120924154Y-89231125D01*
X120876535Y-89040649D01*
X120876535Y-88897792D01*
X120924154Y-88707316D01*
X120971773Y-88612078D01*
X121067011Y-88516840D01*
X121209868Y-88469220D01*
X121305106Y-88469220D01*
X121447963Y-88516840D01*
X121495582Y-88564459D01*
X122447963Y-89469220D02*
X121876535Y-89469220D01*
X122162249Y-89469220D02*
X122162249Y-88469220D01*
X122067011Y-88612078D01*
X121971773Y-88707316D01*
X121876535Y-88754935D01*
X122781297Y-88469220D02*
X123400344Y-88469220D01*
X123067011Y-88850173D01*
X123209868Y-88850173D01*
X123305106Y-88897792D01*
X123352725Y-88945411D01*
X123400344Y-89040649D01*
X123400344Y-89278744D01*
X123352725Y-89373982D01*
X123305106Y-89421601D01*
X123209868Y-89469220D01*
X122924154Y-89469220D01*
X122828916Y-89421601D01*
X122781297Y-89373982D01*
X120806780Y-45367533D02*
X121521066Y-45367533D01*
X121663923Y-45415152D01*
X121759161Y-45510390D01*
X121806780Y-45653247D01*
X121806780Y-45748485D01*
X120902019Y-44938961D02*
X120854400Y-44891342D01*
X120806780Y-44796104D01*
X120806780Y-44558009D01*
X120854400Y-44462771D01*
X120902019Y-44415152D01*
X120997257Y-44367533D01*
X121092495Y-44367533D01*
X121235352Y-44415152D01*
X121806780Y-44986580D01*
X121806780Y-44367533D01*
X120392866Y-51316640D02*
X120392866Y-52030926D01*
X120345247Y-52173783D01*
X120250009Y-52269021D01*
X120107152Y-52316640D01*
X120011914Y-52316640D01*
X120773819Y-51316640D02*
X121392866Y-51316640D01*
X121059533Y-51697593D01*
X121202390Y-51697593D01*
X121297628Y-51745212D01*
X121345247Y-51792831D01*
X121392866Y-51888069D01*
X121392866Y-52126164D01*
X121345247Y-52221402D01*
X121297628Y-52269021D01*
X121202390Y-52316640D01*
X120916676Y-52316640D01*
X120821438Y-52269021D01*
X120773819Y-52221402D01*
X124622820Y-94777417D02*
X123622820Y-94777417D01*
X124622820Y-94205988D01*
X123622820Y-94205988D01*
X123622820Y-93872655D02*
X123622820Y-93301226D01*
X124622820Y-93586940D02*
X123622820Y-93586940D01*
X124622820Y-92444083D02*
X124622820Y-93015512D01*
X124622820Y-92729798D02*
X123622820Y-92729798D01*
X123765678Y-92825036D01*
X123860916Y-92920274D01*
X123908535Y-93015512D01*
X104709933Y-54325780D02*
X104376600Y-53849590D01*
X104138504Y-54325780D02*
X104138504Y-53325780D01*
X104519457Y-53325780D01*
X104614695Y-53373400D01*
X104662314Y-53421019D01*
X104709933Y-53516257D01*
X104709933Y-53659114D01*
X104662314Y-53754352D01*
X104614695Y-53801971D01*
X104519457Y-53849590D01*
X104138504Y-53849590D01*
X105662314Y-54325780D02*
X105090885Y-54325780D01*
X105376600Y-54325780D02*
X105376600Y-53325780D01*
X105281361Y-53468638D01*
X105186123Y-53563876D01*
X105090885Y-53611495D01*
X117600433Y-51844200D02*
X117267100Y-51368010D01*
X117029004Y-51844200D02*
X117029004Y-50844200D01*
X117409957Y-50844200D01*
X117505195Y-50891820D01*
X117552814Y-50939439D01*
X117600433Y-51034677D01*
X117600433Y-51177534D01*
X117552814Y-51272772D01*
X117505195Y-51320391D01*
X117409957Y-51368010D01*
X117029004Y-51368010D01*
X117981385Y-50939439D02*
X118029004Y-50891820D01*
X118124242Y-50844200D01*
X118362338Y-50844200D01*
X118457576Y-50891820D01*
X118505195Y-50939439D01*
X118552814Y-51034677D01*
X118552814Y-51129915D01*
X118505195Y-51272772D01*
X117933766Y-51844200D01*
X118552814Y-51844200D01*
X117613133Y-50241460D02*
X117279800Y-49765270D01*
X117041704Y-50241460D02*
X117041704Y-49241460D01*
X117422657Y-49241460D01*
X117517895Y-49289080D01*
X117565514Y-49336699D01*
X117613133Y-49431937D01*
X117613133Y-49574794D01*
X117565514Y-49670032D01*
X117517895Y-49717651D01*
X117422657Y-49765270D01*
X117041704Y-49765270D01*
X117946466Y-49241460D02*
X118565514Y-49241460D01*
X118232180Y-49622413D01*
X118375038Y-49622413D01*
X118470276Y-49670032D01*
X118517895Y-49717651D01*
X118565514Y-49812889D01*
X118565514Y-50050984D01*
X118517895Y-50146222D01*
X118470276Y-50193841D01*
X118375038Y-50241460D01*
X118089323Y-50241460D01*
X117994085Y-50193841D01*
X117946466Y-50146222D01*
X112888733Y-63445380D02*
X112555400Y-62969190D01*
X112317304Y-63445380D02*
X112317304Y-62445380D01*
X112698257Y-62445380D01*
X112793495Y-62493000D01*
X112841114Y-62540619D01*
X112888733Y-62635857D01*
X112888733Y-62778714D01*
X112841114Y-62873952D01*
X112793495Y-62921571D01*
X112698257Y-62969190D01*
X112317304Y-62969190D01*
X113745876Y-62778714D02*
X113745876Y-63445380D01*
X113507780Y-62397761D02*
X113269685Y-63112047D01*
X113888733Y-63112047D01*
X123028413Y-55351940D02*
X122695080Y-54875750D01*
X122456984Y-55351940D02*
X122456984Y-54351940D01*
X122837937Y-54351940D01*
X122933175Y-54399560D01*
X122980794Y-54447179D01*
X123028413Y-54542417D01*
X123028413Y-54685274D01*
X122980794Y-54780512D01*
X122933175Y-54828131D01*
X122837937Y-54875750D01*
X122456984Y-54875750D01*
X123933175Y-54351940D02*
X123456984Y-54351940D01*
X123409365Y-54828131D01*
X123456984Y-54780512D01*
X123552222Y-54732893D01*
X123790318Y-54732893D01*
X123885556Y-54780512D01*
X123933175Y-54828131D01*
X123980794Y-54923369D01*
X123980794Y-55161464D01*
X123933175Y-55256702D01*
X123885556Y-55304321D01*
X123790318Y-55351940D01*
X123552222Y-55351940D01*
X123456984Y-55304321D01*
X123409365Y-55256702D01*
X118420853Y-98067120D02*
X118087520Y-97590930D01*
X117849424Y-98067120D02*
X117849424Y-97067120D01*
X118230377Y-97067120D01*
X118325615Y-97114740D01*
X118373234Y-97162359D01*
X118420853Y-97257597D01*
X118420853Y-97400454D01*
X118373234Y-97495692D01*
X118325615Y-97543311D01*
X118230377Y-97590930D01*
X117849424Y-97590930D01*
X119277996Y-97067120D02*
X119087520Y-97067120D01*
X118992281Y-97114740D01*
X118944662Y-97162359D01*
X118849424Y-97305216D01*
X118801805Y-97495692D01*
X118801805Y-97876644D01*
X118849424Y-97971882D01*
X118897043Y-98019501D01*
X118992281Y-98067120D01*
X119182758Y-98067120D01*
X119277996Y-98019501D01*
X119325615Y-97971882D01*
X119373234Y-97876644D01*
X119373234Y-97638549D01*
X119325615Y-97543311D01*
X119277996Y-97495692D01*
X119182758Y-97448073D01*
X118992281Y-97448073D01*
X118897043Y-97495692D01*
X118849424Y-97543311D01*
X118801805Y-97638549D01*
X122334993Y-98084900D02*
X122001660Y-97608710D01*
X121763564Y-98084900D02*
X121763564Y-97084900D01*
X122144517Y-97084900D01*
X122239755Y-97132520D01*
X122287374Y-97180139D01*
X122334993Y-97275377D01*
X122334993Y-97418234D01*
X122287374Y-97513472D01*
X122239755Y-97561091D01*
X122144517Y-97608710D01*
X121763564Y-97608710D01*
X122668326Y-97084900D02*
X123334993Y-97084900D01*
X122906421Y-98084900D01*
X119232940Y-91380606D02*
X118756750Y-91713940D01*
X119232940Y-91952035D02*
X118232940Y-91952035D01*
X118232940Y-91571082D01*
X118280560Y-91475844D01*
X118328179Y-91428225D01*
X118423417Y-91380606D01*
X118566274Y-91380606D01*
X118661512Y-91428225D01*
X118709131Y-91475844D01*
X118756750Y-91571082D01*
X118756750Y-91952035D01*
X118661512Y-90809178D02*
X118613893Y-90904416D01*
X118566274Y-90952035D01*
X118471036Y-90999654D01*
X118423417Y-90999654D01*
X118328179Y-90952035D01*
X118280560Y-90904416D01*
X118232940Y-90809178D01*
X118232940Y-90618701D01*
X118280560Y-90523463D01*
X118328179Y-90475844D01*
X118423417Y-90428225D01*
X118471036Y-90428225D01*
X118566274Y-90475844D01*
X118613893Y-90523463D01*
X118661512Y-90618701D01*
X118661512Y-90809178D01*
X118709131Y-90904416D01*
X118756750Y-90952035D01*
X118851988Y-90999654D01*
X119042464Y-90999654D01*
X119137702Y-90952035D01*
X119185321Y-90904416D01*
X119232940Y-90809178D01*
X119232940Y-90618701D01*
X119185321Y-90523463D01*
X119137702Y-90475844D01*
X119042464Y-90428225D01*
X118851988Y-90428225D01*
X118756750Y-90475844D01*
X118709131Y-90523463D01*
X118661512Y-90618701D01*
X144046676Y-59650380D02*
X144713342Y-60650380D01*
X144713342Y-59650380D02*
X144046676Y-60650380D01*
X145618104Y-60650380D02*
X145046676Y-60650380D01*
X145332390Y-60650380D02*
X145332390Y-59650380D01*
X145237152Y-59793238D01*
X145141914Y-59888476D01*
X145046676Y-59936095D01*
M02*
