M48
; DRILL file {KiCad (5.1.5)-3} date 11/18/2021 8:41:13 PM
; FORMAT={-:-/ absolute / inch / decimal}
; #@! TF.CreationDate,2021-11-18T20:41:13-08:00
; #@! TF.GenerationSoftware,Kicad,Pcbnew,(5.1.5)-3
FMAT,2
INCH
T1C0.0157
T2C0.0314
T3C0.0394
T4C0.0512
T5C0.0984
%
G90
G05
T1
X4.124Y-2.337
X4.519Y-2.442
X4.538Y-2.545
X4.569Y-2.452
X4.608Y-3.785
X4.619Y-2.471
X4.674Y-2.459
X4.735Y-2.36
X4.736Y-2.161
X4.736Y-2.261
X4.8432Y-2.5464
X4.8582Y-2.0252
X4.905Y-2.2
X4.908Y-2.07
X4.9082Y-2.0252
T2
X3.9514Y-2.7407
X3.9514Y-2.8407
X3.9514Y-2.9407
X3.9536Y-2.3223
X3.9536Y-2.4223
X3.9536Y-2.5223
X4.1971Y-2.2863
X4.1971Y-2.3863
X4.206Y-1.971
X4.206Y-2.071
X4.298Y-1.774
X4.298Y-1.874
X4.414Y-2.724
X4.414Y-3.124
X4.514Y-2.724
X4.514Y-3.124
X5.153Y-3.144
X5.153Y-3.244
X5.1839Y-1.5538
X5.1839Y-1.6538
X5.1839Y-1.7538
X5.425Y-3.225
X5.425Y-3.325
X5.682Y-3.225
X5.682Y-3.325
T3
X4.486Y-1.773
X4.586Y-1.773
X4.686Y-1.773
X5.249Y-2.328
X5.349Y-2.328
X4.758Y-1.942
T4
X4.9261Y-1.66
X5.0639Y-1.66
X5.0121Y-3.626
X5.1499Y-3.626
T5
X5.53Y-1.78
T0
M30
