G04 #@! TF.GenerationSoftware,KiCad,Pcbnew,(5.1.5)-3*
G04 #@! TF.CreationDate,2021-11-18T20:40:18-08:00*
G04 #@! TF.ProjectId,nixie_supply_v1,6e697869-655f-4737-9570-706c795f7631,rev?*
G04 #@! TF.SameCoordinates,Original*
G04 #@! TF.FileFunction,Soldermask,Top*
G04 #@! TF.FilePolarity,Negative*
%FSLAX46Y46*%
G04 Gerber Fmt 4.6, Leading zero omitted, Abs format (unit mm)*
G04 Created by KiCad (PCBNEW (5.1.5)-3) date 2021-11-18 20:40:18*
%MOMM*%
%LPD*%
G04 APERTURE LIST*
%ADD10C,0.120000*%
%ADD11C,0.150000*%
G04 APERTURE END LIST*
D10*
X159664400Y-69088000D02*
G75*
G03X159664400Y-69088000I-31750000J0D01*
G01*
D11*
G36*
X119024668Y-95602765D02*
G01*
X119063338Y-95614496D01*
X119098977Y-95633546D01*
X119130217Y-95659183D01*
X119155854Y-95690423D01*
X119174904Y-95726062D01*
X119186635Y-95764732D01*
X119191200Y-95811088D01*
X119191200Y-96462312D01*
X119186635Y-96508668D01*
X119174904Y-96547338D01*
X119155854Y-96582977D01*
X119130217Y-96614217D01*
X119098977Y-96639854D01*
X119063338Y-96658904D01*
X119024668Y-96670635D01*
X118978312Y-96675200D01*
X117902088Y-96675200D01*
X117855732Y-96670635D01*
X117817062Y-96658904D01*
X117781423Y-96639854D01*
X117750183Y-96614217D01*
X117724546Y-96582977D01*
X117705496Y-96547338D01*
X117693765Y-96508668D01*
X117689200Y-96462312D01*
X117689200Y-95811088D01*
X117693765Y-95764732D01*
X117705496Y-95726062D01*
X117724546Y-95690423D01*
X117750183Y-95659183D01*
X117781423Y-95633546D01*
X117817062Y-95614496D01*
X117855732Y-95602765D01*
X117902088Y-95598200D01*
X118978312Y-95598200D01*
X119024668Y-95602765D01*
G37*
G36*
X122770191Y-95566285D02*
G01*
X122804169Y-95576593D01*
X122835490Y-95593334D01*
X122862939Y-95615861D01*
X122885466Y-95643310D01*
X122902207Y-95674631D01*
X122912515Y-95708609D01*
X122916600Y-95750090D01*
X122916600Y-96426310D01*
X122912515Y-96467791D01*
X122902207Y-96501769D01*
X122885466Y-96533090D01*
X122862939Y-96560539D01*
X122835490Y-96583066D01*
X122804169Y-96599807D01*
X122770191Y-96610115D01*
X122728710Y-96614200D01*
X122127490Y-96614200D01*
X122086009Y-96610115D01*
X122052031Y-96599807D01*
X122020710Y-96583066D01*
X121993261Y-96560539D01*
X121970734Y-96533090D01*
X121953993Y-96501769D01*
X121943685Y-96467791D01*
X121939600Y-96426310D01*
X121939600Y-95750090D01*
X121943685Y-95708609D01*
X121953993Y-95674631D01*
X121970734Y-95643310D01*
X121993261Y-95615861D01*
X122020710Y-95593334D01*
X122052031Y-95576593D01*
X122086009Y-95566285D01*
X122127490Y-95562200D01*
X122728710Y-95562200D01*
X122770191Y-95566285D01*
G37*
G36*
X121195191Y-95566285D02*
G01*
X121229169Y-95576593D01*
X121260490Y-95593334D01*
X121287939Y-95615861D01*
X121310466Y-95643310D01*
X121327207Y-95674631D01*
X121337515Y-95708609D01*
X121341600Y-95750090D01*
X121341600Y-96426310D01*
X121337515Y-96467791D01*
X121327207Y-96501769D01*
X121310466Y-96533090D01*
X121287939Y-96560539D01*
X121260490Y-96583066D01*
X121229169Y-96599807D01*
X121195191Y-96610115D01*
X121153710Y-96614200D01*
X120552490Y-96614200D01*
X120511009Y-96610115D01*
X120477031Y-96599807D01*
X120445710Y-96583066D01*
X120418261Y-96560539D01*
X120395734Y-96533090D01*
X120378993Y-96501769D01*
X120368685Y-96467791D01*
X120364600Y-96426310D01*
X120364600Y-95750090D01*
X120368685Y-95708609D01*
X120378993Y-95674631D01*
X120395734Y-95643310D01*
X120418261Y-95615861D01*
X120445710Y-95593334D01*
X120477031Y-95576593D01*
X120511009Y-95566285D01*
X120552490Y-95562200D01*
X121153710Y-95562200D01*
X121195191Y-95566285D01*
G37*
G36*
X119024668Y-93727765D02*
G01*
X119063338Y-93739496D01*
X119098977Y-93758546D01*
X119130217Y-93784183D01*
X119155854Y-93815423D01*
X119174904Y-93851062D01*
X119186635Y-93889732D01*
X119191200Y-93936088D01*
X119191200Y-94587312D01*
X119186635Y-94633668D01*
X119174904Y-94672338D01*
X119155854Y-94707977D01*
X119130217Y-94739217D01*
X119098977Y-94764854D01*
X119063338Y-94783904D01*
X119024668Y-94795635D01*
X118978312Y-94800200D01*
X117902088Y-94800200D01*
X117855732Y-94795635D01*
X117817062Y-94783904D01*
X117781423Y-94764854D01*
X117750183Y-94739217D01*
X117724546Y-94707977D01*
X117705496Y-94672338D01*
X117693765Y-94633668D01*
X117689200Y-94587312D01*
X117689200Y-93936088D01*
X117693765Y-93889732D01*
X117705496Y-93851062D01*
X117724546Y-93815423D01*
X117750183Y-93784183D01*
X117781423Y-93758546D01*
X117817062Y-93739496D01*
X117855732Y-93727765D01*
X117902088Y-93723200D01*
X118978312Y-93723200D01*
X119024668Y-93727765D01*
G37*
G36*
X123051668Y-93208165D02*
G01*
X123090338Y-93219896D01*
X123125977Y-93238946D01*
X123157217Y-93264583D01*
X123182854Y-93295823D01*
X123201904Y-93331462D01*
X123213635Y-93370132D01*
X123218200Y-93416488D01*
X123218200Y-94492712D01*
X123213635Y-94539068D01*
X123201904Y-94577738D01*
X123182854Y-94613377D01*
X123157217Y-94644617D01*
X123125977Y-94670254D01*
X123090338Y-94689304D01*
X123051668Y-94701035D01*
X123005312Y-94705600D01*
X122354088Y-94705600D01*
X122307732Y-94701035D01*
X122269062Y-94689304D01*
X122233423Y-94670254D01*
X122202183Y-94644617D01*
X122176546Y-94613377D01*
X122157496Y-94577738D01*
X122145765Y-94539068D01*
X122141200Y-94492712D01*
X122141200Y-93416488D01*
X122145765Y-93370132D01*
X122157496Y-93331462D01*
X122176546Y-93295823D01*
X122202183Y-93264583D01*
X122233423Y-93238946D01*
X122269062Y-93219896D01*
X122307732Y-93208165D01*
X122354088Y-93203600D01*
X123005312Y-93203600D01*
X123051668Y-93208165D01*
G37*
G36*
X121176668Y-93208165D02*
G01*
X121215338Y-93219896D01*
X121250977Y-93238946D01*
X121282217Y-93264583D01*
X121307854Y-93295823D01*
X121326904Y-93331462D01*
X121338635Y-93370132D01*
X121343200Y-93416488D01*
X121343200Y-94492712D01*
X121338635Y-94539068D01*
X121326904Y-94577738D01*
X121307854Y-94613377D01*
X121282217Y-94644617D01*
X121250977Y-94670254D01*
X121215338Y-94689304D01*
X121176668Y-94701035D01*
X121130312Y-94705600D01*
X120479088Y-94705600D01*
X120432732Y-94701035D01*
X120394062Y-94689304D01*
X120358423Y-94670254D01*
X120327183Y-94644617D01*
X120301546Y-94613377D01*
X120282496Y-94577738D01*
X120270765Y-94539068D01*
X120266200Y-94492712D01*
X120266200Y-93416488D01*
X120270765Y-93370132D01*
X120282496Y-93331462D01*
X120301546Y-93295823D01*
X120327183Y-93264583D01*
X120358423Y-93238946D01*
X120394062Y-93219896D01*
X120432732Y-93208165D01*
X120479088Y-93203600D01*
X121130312Y-93203600D01*
X121176668Y-93208165D01*
G37*
G36*
X127606672Y-91113828D02*
G01*
X127793391Y-91191170D01*
X127793393Y-91191171D01*
X127961437Y-91303454D01*
X128104346Y-91446363D01*
X128198717Y-91587600D01*
X128216630Y-91614409D01*
X128293972Y-91801128D01*
X128333400Y-91999347D01*
X128333400Y-92201453D01*
X128293972Y-92399672D01*
X128225573Y-92564800D01*
X128216629Y-92586393D01*
X128104346Y-92754437D01*
X127961437Y-92897346D01*
X127793393Y-93009629D01*
X127793392Y-93009630D01*
X127793391Y-93009630D01*
X127606672Y-93086972D01*
X127408453Y-93126400D01*
X127206347Y-93126400D01*
X127008128Y-93086972D01*
X126821409Y-93009630D01*
X126821408Y-93009630D01*
X126821407Y-93009629D01*
X126653363Y-92897346D01*
X126510454Y-92754437D01*
X126398171Y-92586393D01*
X126389227Y-92564800D01*
X126320828Y-92399672D01*
X126281400Y-92201453D01*
X126281400Y-91999347D01*
X126320828Y-91801128D01*
X126398170Y-91614409D01*
X126416083Y-91587600D01*
X126510454Y-91446363D01*
X126653363Y-91303454D01*
X126821407Y-91191171D01*
X126821409Y-91191170D01*
X127008128Y-91113828D01*
X127206347Y-91074400D01*
X127408453Y-91074400D01*
X127606672Y-91113828D01*
G37*
G36*
X131106672Y-91113828D02*
G01*
X131293391Y-91191170D01*
X131293393Y-91191171D01*
X131461437Y-91303454D01*
X131604346Y-91446363D01*
X131698717Y-91587600D01*
X131716630Y-91614409D01*
X131793972Y-91801128D01*
X131833400Y-91999347D01*
X131833400Y-92201453D01*
X131793972Y-92399672D01*
X131725573Y-92564800D01*
X131716629Y-92586393D01*
X131604346Y-92754437D01*
X131461437Y-92897346D01*
X131293393Y-93009629D01*
X131293392Y-93009630D01*
X131293391Y-93009630D01*
X131106672Y-93086972D01*
X130908453Y-93126400D01*
X130706347Y-93126400D01*
X130508128Y-93086972D01*
X130321409Y-93009630D01*
X130321408Y-93009630D01*
X130321407Y-93009629D01*
X130153363Y-92897346D01*
X130010454Y-92754437D01*
X129898171Y-92586393D01*
X129889227Y-92564800D01*
X129820828Y-92399672D01*
X129781400Y-92201453D01*
X129781400Y-91999347D01*
X129820828Y-91801128D01*
X129898170Y-91614409D01*
X129916083Y-91587600D01*
X130010454Y-91446363D01*
X130153363Y-91303454D01*
X130321407Y-91191171D01*
X130321409Y-91191170D01*
X130508128Y-91113828D01*
X130706347Y-91074400D01*
X130908453Y-91074400D01*
X131106672Y-91113828D01*
G37*
G36*
X112562000Y-92564800D02*
G01*
X109960000Y-92564800D01*
X109960000Y-90162800D01*
X112562000Y-90162800D01*
X112562000Y-92564800D01*
G37*
G36*
X116862000Y-92564800D02*
G01*
X114260000Y-92564800D01*
X114260000Y-90162800D01*
X116862000Y-90162800D01*
X116862000Y-92564800D01*
G37*
G36*
X120835404Y-90010347D02*
G01*
X120871944Y-90021432D01*
X120905621Y-90039433D01*
X120935141Y-90063659D01*
X120959367Y-90093179D01*
X120977368Y-90126856D01*
X120988453Y-90163396D01*
X120992800Y-90207538D01*
X120992800Y-91656462D01*
X120988453Y-91700604D01*
X120977368Y-91737144D01*
X120959367Y-91770821D01*
X120935141Y-91800341D01*
X120905621Y-91824567D01*
X120871944Y-91842568D01*
X120835404Y-91853653D01*
X120791262Y-91858000D01*
X119842338Y-91858000D01*
X119798196Y-91853653D01*
X119761656Y-91842568D01*
X119727979Y-91824567D01*
X119698459Y-91800341D01*
X119674233Y-91770821D01*
X119656232Y-91737144D01*
X119645147Y-91700604D01*
X119640800Y-91656462D01*
X119640800Y-90207538D01*
X119645147Y-90163396D01*
X119656232Y-90126856D01*
X119674233Y-90093179D01*
X119698459Y-90063659D01*
X119727979Y-90039433D01*
X119761656Y-90021432D01*
X119798196Y-90010347D01*
X119842338Y-90006000D01*
X120791262Y-90006000D01*
X120835404Y-90010347D01*
G37*
G36*
X123635404Y-90010347D02*
G01*
X123671944Y-90021432D01*
X123705621Y-90039433D01*
X123735141Y-90063659D01*
X123759367Y-90093179D01*
X123777368Y-90126856D01*
X123788453Y-90163396D01*
X123792800Y-90207538D01*
X123792800Y-91656462D01*
X123788453Y-91700604D01*
X123777368Y-91737144D01*
X123759367Y-91770821D01*
X123735141Y-91800341D01*
X123705621Y-91824567D01*
X123671944Y-91842568D01*
X123635404Y-91853653D01*
X123591262Y-91858000D01*
X122642338Y-91858000D01*
X122598196Y-91853653D01*
X122561656Y-91842568D01*
X122527979Y-91824567D01*
X122498459Y-91800341D01*
X122474233Y-91770821D01*
X122456232Y-91737144D01*
X122445147Y-91700604D01*
X122440800Y-91656462D01*
X122440800Y-90207538D01*
X122445147Y-90163396D01*
X122456232Y-90126856D01*
X122474233Y-90093179D01*
X122498459Y-90063659D01*
X122527979Y-90039433D01*
X122561656Y-90021432D01*
X122598196Y-90010347D01*
X122642338Y-90006000D01*
X123591262Y-90006000D01*
X123635404Y-90010347D01*
G37*
G36*
X122148004Y-86732747D02*
G01*
X122184544Y-86743832D01*
X122218221Y-86761833D01*
X122247741Y-86786059D01*
X122271967Y-86815579D01*
X122289968Y-86849256D01*
X122301053Y-86885796D01*
X122305400Y-86929938D01*
X122305400Y-87878862D01*
X122301053Y-87923004D01*
X122289968Y-87959544D01*
X122271967Y-87993221D01*
X122247741Y-88022741D01*
X122218221Y-88046967D01*
X122184544Y-88064968D01*
X122148004Y-88076053D01*
X122103862Y-88080400D01*
X119754938Y-88080400D01*
X119710796Y-88076053D01*
X119674256Y-88064968D01*
X119640579Y-88046967D01*
X119611059Y-88022741D01*
X119586833Y-87993221D01*
X119568832Y-87959544D01*
X119557747Y-87923004D01*
X119553400Y-87878862D01*
X119553400Y-86929938D01*
X119557747Y-86885796D01*
X119568832Y-86849256D01*
X119586833Y-86815579D01*
X119611059Y-86786059D01*
X119640579Y-86761833D01*
X119674256Y-86743832D01*
X119710796Y-86732747D01*
X119754938Y-86728400D01*
X122103862Y-86728400D01*
X122148004Y-86732747D01*
G37*
G36*
X114172404Y-86732747D02*
G01*
X114208944Y-86743832D01*
X114242621Y-86761833D01*
X114272141Y-86786059D01*
X114296367Y-86815579D01*
X114314368Y-86849256D01*
X114325453Y-86885796D01*
X114329800Y-86929938D01*
X114329800Y-87878862D01*
X114325453Y-87923004D01*
X114314368Y-87959544D01*
X114296367Y-87993221D01*
X114272141Y-88022741D01*
X114242621Y-88046967D01*
X114208944Y-88064968D01*
X114172404Y-88076053D01*
X114128262Y-88080400D01*
X111779338Y-88080400D01*
X111735196Y-88076053D01*
X111698656Y-88064968D01*
X111664979Y-88046967D01*
X111635459Y-88022741D01*
X111611233Y-87993221D01*
X111593232Y-87959544D01*
X111582147Y-87923004D01*
X111577800Y-87878862D01*
X111577800Y-86929938D01*
X111582147Y-86885796D01*
X111593232Y-86849256D01*
X111611233Y-86815579D01*
X111635459Y-86786059D01*
X111664979Y-86761833D01*
X111698656Y-86743832D01*
X111735196Y-86732747D01*
X111779338Y-86728400D01*
X114128262Y-86728400D01*
X114172404Y-86732747D01*
G37*
G36*
X118236404Y-86707347D02*
G01*
X118272944Y-86718432D01*
X118306621Y-86736433D01*
X118336141Y-86760659D01*
X118360367Y-86790179D01*
X118378368Y-86823856D01*
X118389453Y-86860396D01*
X118393800Y-86904538D01*
X118393800Y-87853462D01*
X118389453Y-87897604D01*
X118378368Y-87934144D01*
X118360367Y-87967821D01*
X118336141Y-87997341D01*
X118306621Y-88021567D01*
X118272944Y-88039568D01*
X118236404Y-88050653D01*
X118192262Y-88055000D01*
X115843338Y-88055000D01*
X115799196Y-88050653D01*
X115762656Y-88039568D01*
X115728979Y-88021567D01*
X115699459Y-87997341D01*
X115675233Y-87967821D01*
X115657232Y-87934144D01*
X115646147Y-87897604D01*
X115641800Y-87853462D01*
X115641800Y-86904538D01*
X115646147Y-86860396D01*
X115657232Y-86823856D01*
X115675233Y-86790179D01*
X115699459Y-86760659D01*
X115728979Y-86736433D01*
X115762656Y-86718432D01*
X115799196Y-86707347D01*
X115843338Y-86703000D01*
X118192262Y-86703000D01*
X118236404Y-86707347D01*
G37*
G36*
X122148004Y-83932747D02*
G01*
X122184544Y-83943832D01*
X122218221Y-83961833D01*
X122247741Y-83986059D01*
X122271967Y-84015579D01*
X122289968Y-84049256D01*
X122301053Y-84085796D01*
X122305400Y-84129938D01*
X122305400Y-85078862D01*
X122301053Y-85123004D01*
X122289968Y-85159544D01*
X122271967Y-85193221D01*
X122247741Y-85222741D01*
X122218221Y-85246967D01*
X122184544Y-85264968D01*
X122148004Y-85276053D01*
X122103862Y-85280400D01*
X119754938Y-85280400D01*
X119710796Y-85276053D01*
X119674256Y-85264968D01*
X119640579Y-85246967D01*
X119611059Y-85222741D01*
X119586833Y-85193221D01*
X119568832Y-85159544D01*
X119557747Y-85123004D01*
X119553400Y-85078862D01*
X119553400Y-84129938D01*
X119557747Y-84085796D01*
X119568832Y-84049256D01*
X119586833Y-84015579D01*
X119611059Y-83986059D01*
X119640579Y-83961833D01*
X119674256Y-83943832D01*
X119710796Y-83932747D01*
X119754938Y-83928400D01*
X122103862Y-83928400D01*
X122148004Y-83932747D01*
G37*
G36*
X114172404Y-83932747D02*
G01*
X114208944Y-83943832D01*
X114242621Y-83961833D01*
X114272141Y-83986059D01*
X114296367Y-84015579D01*
X114314368Y-84049256D01*
X114325453Y-84085796D01*
X114329800Y-84129938D01*
X114329800Y-85078862D01*
X114325453Y-85123004D01*
X114314368Y-85159544D01*
X114296367Y-85193221D01*
X114272141Y-85222741D01*
X114242621Y-85246967D01*
X114208944Y-85264968D01*
X114172404Y-85276053D01*
X114128262Y-85280400D01*
X111779338Y-85280400D01*
X111735196Y-85276053D01*
X111698656Y-85264968D01*
X111664979Y-85246967D01*
X111635459Y-85222741D01*
X111611233Y-85193221D01*
X111593232Y-85159544D01*
X111582147Y-85123004D01*
X111577800Y-85078862D01*
X111577800Y-84129938D01*
X111582147Y-84085796D01*
X111593232Y-84049256D01*
X111611233Y-84015579D01*
X111635459Y-83986059D01*
X111664979Y-83961833D01*
X111698656Y-83943832D01*
X111735196Y-83932747D01*
X111779338Y-83928400D01*
X114128262Y-83928400D01*
X114172404Y-83932747D01*
G37*
G36*
X118236404Y-83907347D02*
G01*
X118272944Y-83918432D01*
X118306621Y-83936433D01*
X118336141Y-83960659D01*
X118360367Y-83990179D01*
X118378368Y-84023856D01*
X118389453Y-84060396D01*
X118393800Y-84104538D01*
X118393800Y-85053462D01*
X118389453Y-85097604D01*
X118378368Y-85134144D01*
X118360367Y-85167821D01*
X118336141Y-85197341D01*
X118306621Y-85221567D01*
X118272944Y-85239568D01*
X118236404Y-85250653D01*
X118192262Y-85255000D01*
X115843338Y-85255000D01*
X115799196Y-85250653D01*
X115762656Y-85239568D01*
X115728979Y-85221567D01*
X115699459Y-85197341D01*
X115675233Y-85167821D01*
X115657232Y-85134144D01*
X115646147Y-85097604D01*
X115641800Y-85053462D01*
X115641800Y-84104538D01*
X115646147Y-84060396D01*
X115657232Y-84023856D01*
X115675233Y-83990179D01*
X115699459Y-83960659D01*
X115728979Y-83936433D01*
X115762656Y-83918432D01*
X115799196Y-83907347D01*
X115843338Y-83903000D01*
X118192262Y-83903000D01*
X118236404Y-83907347D01*
G37*
G36*
X142707600Y-84903400D02*
G01*
X139435600Y-84903400D01*
X139435600Y-80841400D01*
X142707600Y-80841400D01*
X142707600Y-84903400D01*
G37*
G36*
X128461200Y-81922800D02*
G01*
X124929200Y-81922800D01*
X124929200Y-80030800D01*
X128461200Y-80030800D01*
X128461200Y-81922800D01*
G37*
G36*
X108141200Y-81922800D02*
G01*
X104609200Y-81922800D01*
X104609200Y-80030800D01*
X108141200Y-80030800D01*
X108141200Y-81922800D01*
G37*
G36*
X128461200Y-79422800D02*
G01*
X124929200Y-79422800D01*
X124929200Y-77530800D01*
X128461200Y-77530800D01*
X128461200Y-79422800D01*
G37*
G36*
X108141200Y-79422800D02*
G01*
X104609200Y-79422800D01*
X104609200Y-77530800D01*
X108141200Y-77530800D01*
X108141200Y-79422800D01*
G37*
G36*
X108141200Y-76922800D02*
G01*
X104609200Y-76922800D01*
X104609200Y-75030800D01*
X108141200Y-75030800D01*
X108141200Y-76922800D01*
G37*
G36*
X128461200Y-76922800D02*
G01*
X124929200Y-76922800D01*
X124929200Y-75030800D01*
X128461200Y-75030800D01*
X128461200Y-76922800D01*
G37*
G36*
X128461200Y-74422800D02*
G01*
X124929200Y-74422800D01*
X124929200Y-72530800D01*
X128461200Y-72530800D01*
X128461200Y-74422800D01*
G37*
G36*
X108141200Y-74422800D02*
G01*
X104609200Y-74422800D01*
X104609200Y-72530800D01*
X108141200Y-72530800D01*
X108141200Y-74422800D01*
G37*
G36*
X128461200Y-71922800D02*
G01*
X124929200Y-71922800D01*
X124929200Y-70030800D01*
X128461200Y-70030800D01*
X128461200Y-71922800D01*
G37*
G36*
X108141200Y-71922800D02*
G01*
X104609200Y-71922800D01*
X104609200Y-70030800D01*
X108141200Y-70030800D01*
X108141200Y-71922800D01*
G37*
G36*
X128461200Y-69422800D02*
G01*
X124929200Y-69422800D01*
X124929200Y-67530800D01*
X128461200Y-67530800D01*
X128461200Y-69422800D01*
G37*
G36*
X108141200Y-69422800D02*
G01*
X104609200Y-69422800D01*
X104609200Y-67530800D01*
X108141200Y-67530800D01*
X108141200Y-69422800D01*
G37*
G36*
X112489868Y-63896565D02*
G01*
X112528538Y-63908296D01*
X112564177Y-63927346D01*
X112595417Y-63952983D01*
X112621054Y-63984223D01*
X112640104Y-64019862D01*
X112651835Y-64058532D01*
X112656400Y-64104888D01*
X112656400Y-65181112D01*
X112651835Y-65227468D01*
X112640104Y-65266138D01*
X112621054Y-65301777D01*
X112595417Y-65333017D01*
X112564177Y-65358654D01*
X112528538Y-65377704D01*
X112489868Y-65389435D01*
X112443512Y-65394000D01*
X111792288Y-65394000D01*
X111745932Y-65389435D01*
X111707262Y-65377704D01*
X111671623Y-65358654D01*
X111640383Y-65333017D01*
X111614746Y-65301777D01*
X111595696Y-65266138D01*
X111583965Y-65227468D01*
X111579400Y-65181112D01*
X111579400Y-64104888D01*
X111583965Y-64058532D01*
X111595696Y-64019862D01*
X111614746Y-63984223D01*
X111640383Y-63952983D01*
X111671623Y-63927346D01*
X111707262Y-63908296D01*
X111745932Y-63896565D01*
X111792288Y-63892000D01*
X112443512Y-63892000D01*
X112489868Y-63896565D01*
G37*
G36*
X114364868Y-63896565D02*
G01*
X114403538Y-63908296D01*
X114439177Y-63927346D01*
X114470417Y-63952983D01*
X114496054Y-63984223D01*
X114515104Y-64019862D01*
X114526835Y-64058532D01*
X114531400Y-64104888D01*
X114531400Y-65181112D01*
X114526835Y-65227468D01*
X114515104Y-65266138D01*
X114496054Y-65301777D01*
X114470417Y-65333017D01*
X114439177Y-65358654D01*
X114403538Y-65377704D01*
X114364868Y-65389435D01*
X114318512Y-65394000D01*
X113667288Y-65394000D01*
X113620932Y-65389435D01*
X113582262Y-65377704D01*
X113546623Y-65358654D01*
X113515383Y-65333017D01*
X113489746Y-65301777D01*
X113470696Y-65266138D01*
X113458965Y-65227468D01*
X113454400Y-65181112D01*
X113454400Y-64104888D01*
X113458965Y-64058532D01*
X113470696Y-64019862D01*
X113489746Y-63984223D01*
X113515383Y-63952983D01*
X113546623Y-63927346D01*
X113582262Y-63908296D01*
X113620932Y-63896565D01*
X113667288Y-63892000D01*
X114318512Y-63892000D01*
X114364868Y-63896565D01*
G37*
G36*
X126275391Y-64146485D02*
G01*
X126309369Y-64156793D01*
X126340690Y-64173534D01*
X126368139Y-64196061D01*
X126390666Y-64223510D01*
X126407407Y-64254831D01*
X126417715Y-64288809D01*
X126421800Y-64330290D01*
X126421800Y-65006510D01*
X126417715Y-65047991D01*
X126407407Y-65081969D01*
X126390666Y-65113290D01*
X126368139Y-65140739D01*
X126340690Y-65163266D01*
X126309369Y-65180007D01*
X126275391Y-65190315D01*
X126233910Y-65194400D01*
X125632690Y-65194400D01*
X125591209Y-65190315D01*
X125557231Y-65180007D01*
X125525910Y-65163266D01*
X125498461Y-65140739D01*
X125475934Y-65113290D01*
X125459193Y-65081969D01*
X125448885Y-65047991D01*
X125444800Y-65006510D01*
X125444800Y-64330290D01*
X125448885Y-64288809D01*
X125459193Y-64254831D01*
X125475934Y-64223510D01*
X125498461Y-64196061D01*
X125525910Y-64173534D01*
X125557231Y-64156793D01*
X125591209Y-64146485D01*
X125632690Y-64142400D01*
X126233910Y-64142400D01*
X126275391Y-64146485D01*
G37*
G36*
X124700391Y-64146485D02*
G01*
X124734369Y-64156793D01*
X124765690Y-64173534D01*
X124793139Y-64196061D01*
X124815666Y-64223510D01*
X124832407Y-64254831D01*
X124842715Y-64288809D01*
X124846800Y-64330290D01*
X124846800Y-65006510D01*
X124842715Y-65047991D01*
X124832407Y-65081969D01*
X124815666Y-65113290D01*
X124793139Y-65140739D01*
X124765690Y-65163266D01*
X124734369Y-65180007D01*
X124700391Y-65190315D01*
X124658910Y-65194400D01*
X124057690Y-65194400D01*
X124016209Y-65190315D01*
X123982231Y-65180007D01*
X123950910Y-65163266D01*
X123923461Y-65140739D01*
X123900934Y-65113290D01*
X123884193Y-65081969D01*
X123873885Y-65047991D01*
X123869800Y-65006510D01*
X123869800Y-64330290D01*
X123873885Y-64288809D01*
X123884193Y-64254831D01*
X123900934Y-64223510D01*
X123923461Y-64196061D01*
X123950910Y-64173534D01*
X123982231Y-64156793D01*
X124016209Y-64146485D01*
X124057690Y-64142400D01*
X124658910Y-64142400D01*
X124700391Y-64146485D01*
G37*
G36*
X126258599Y-58718999D02*
G01*
X126258601Y-58719001D01*
X126259205Y-58725137D01*
X126259205Y-63262863D01*
X126258601Y-63268999D01*
X126258599Y-63269001D01*
X126252463Y-63269605D01*
X125664737Y-63269605D01*
X125658601Y-63269001D01*
X125658599Y-63268999D01*
X125657995Y-63262863D01*
X125657995Y-62594604D01*
X125655593Y-62570218D01*
X125648480Y-62546769D01*
X125636929Y-62525158D01*
X125621384Y-62506216D01*
X125602442Y-62490671D01*
X125580831Y-62479120D01*
X125557382Y-62472007D01*
X125532996Y-62469605D01*
X125114204Y-62469605D01*
X125089818Y-62472007D01*
X125066369Y-62479120D01*
X125044758Y-62490671D01*
X125025816Y-62506216D01*
X125010271Y-62525158D01*
X124998720Y-62546769D01*
X124991607Y-62570218D01*
X124989205Y-62594604D01*
X124989205Y-63262863D01*
X124988601Y-63268999D01*
X124988599Y-63269001D01*
X124982463Y-63269605D01*
X124394737Y-63269605D01*
X124388601Y-63269001D01*
X124388599Y-63268999D01*
X124387995Y-63262863D01*
X124387995Y-62594604D01*
X124385593Y-62570218D01*
X124378480Y-62546769D01*
X124366929Y-62525158D01*
X124351384Y-62506216D01*
X124332442Y-62490671D01*
X124310831Y-62479120D01*
X124287382Y-62472007D01*
X124262996Y-62469605D01*
X123844204Y-62469605D01*
X123819818Y-62472007D01*
X123796369Y-62479120D01*
X123774758Y-62490671D01*
X123755816Y-62506216D01*
X123740271Y-62525158D01*
X123728720Y-62546769D01*
X123721607Y-62570218D01*
X123719205Y-62594604D01*
X123719205Y-63262863D01*
X123718601Y-63268999D01*
X123718599Y-63269001D01*
X123712463Y-63269605D01*
X123124737Y-63269605D01*
X123118601Y-63269001D01*
X123118599Y-63268999D01*
X123117995Y-63262863D01*
X123117995Y-62594604D01*
X123115593Y-62570218D01*
X123108480Y-62546769D01*
X123096929Y-62525158D01*
X123081384Y-62506216D01*
X123062442Y-62490671D01*
X123040831Y-62479120D01*
X123017382Y-62472007D01*
X122992996Y-62469605D01*
X122574204Y-62469605D01*
X122549818Y-62472007D01*
X122526369Y-62479120D01*
X122504758Y-62490671D01*
X122485816Y-62506216D01*
X122470271Y-62525158D01*
X122458720Y-62546769D01*
X122451607Y-62570218D01*
X122449205Y-62594604D01*
X122449205Y-63262863D01*
X122448601Y-63268999D01*
X122448599Y-63269001D01*
X122442463Y-63269605D01*
X121854737Y-63269605D01*
X121848601Y-63269001D01*
X121848599Y-63268999D01*
X121847995Y-63262863D01*
X121847995Y-58725137D01*
X121848599Y-58719001D01*
X121848601Y-58718999D01*
X121854737Y-58718395D01*
X126252463Y-58718395D01*
X126258599Y-58718999D01*
G37*
G36*
X142707600Y-63143400D02*
G01*
X139435600Y-63143400D01*
X139435600Y-59081400D01*
X142707600Y-59081400D01*
X142707600Y-63143400D01*
G37*
G36*
X109467268Y-59959565D02*
G01*
X109505938Y-59971296D01*
X109541577Y-59990346D01*
X109572817Y-60015983D01*
X109598454Y-60047223D01*
X109617504Y-60082862D01*
X109629235Y-60121532D01*
X109633800Y-60167888D01*
X109633800Y-61244112D01*
X109629235Y-61290468D01*
X109617504Y-61329138D01*
X109598454Y-61364777D01*
X109572817Y-61396017D01*
X109541577Y-61421654D01*
X109505938Y-61440704D01*
X109467268Y-61452435D01*
X109420912Y-61457000D01*
X108769688Y-61457000D01*
X108723332Y-61452435D01*
X108684662Y-61440704D01*
X108649023Y-61421654D01*
X108617783Y-61396017D01*
X108592146Y-61364777D01*
X108573096Y-61329138D01*
X108561365Y-61290468D01*
X108556800Y-61244112D01*
X108556800Y-60167888D01*
X108561365Y-60121532D01*
X108573096Y-60082862D01*
X108592146Y-60047223D01*
X108617783Y-60015983D01*
X108649023Y-59990346D01*
X108684662Y-59971296D01*
X108723332Y-59959565D01*
X108769688Y-59955000D01*
X109420912Y-59955000D01*
X109467268Y-59959565D01*
G37*
G36*
X111342268Y-59959565D02*
G01*
X111380938Y-59971296D01*
X111416577Y-59990346D01*
X111447817Y-60015983D01*
X111473454Y-60047223D01*
X111492504Y-60082862D01*
X111504235Y-60121532D01*
X111508800Y-60167888D01*
X111508800Y-61244112D01*
X111504235Y-61290468D01*
X111492504Y-61329138D01*
X111473454Y-61364777D01*
X111447817Y-61396017D01*
X111416577Y-61421654D01*
X111380938Y-61440704D01*
X111342268Y-61452435D01*
X111295912Y-61457000D01*
X110644688Y-61457000D01*
X110598332Y-61452435D01*
X110559662Y-61440704D01*
X110524023Y-61421654D01*
X110492783Y-61396017D01*
X110467146Y-61364777D01*
X110448096Y-61329138D01*
X110436365Y-61290468D01*
X110431800Y-61244112D01*
X110431800Y-60167888D01*
X110436365Y-60121532D01*
X110448096Y-60082862D01*
X110467146Y-60047223D01*
X110492783Y-60015983D01*
X110524023Y-59990346D01*
X110559662Y-59971296D01*
X110598332Y-59959565D01*
X110644688Y-59955000D01*
X111295912Y-59955000D01*
X111342268Y-59959565D01*
G37*
G36*
X117673600Y-61438400D02*
G01*
X116971600Y-61438400D01*
X116971600Y-59336400D01*
X117673600Y-59336400D01*
X117673600Y-61438400D01*
G37*
G36*
X118943600Y-61438400D02*
G01*
X118241600Y-61438400D01*
X118241600Y-59336400D01*
X118943600Y-59336400D01*
X118943600Y-61438400D01*
G37*
G36*
X116403600Y-61438400D02*
G01*
X115701600Y-61438400D01*
X115701600Y-59336400D01*
X116403600Y-59336400D01*
X116403600Y-61438400D01*
G37*
G36*
X115133600Y-61438400D02*
G01*
X114431600Y-61438400D01*
X114431600Y-59336400D01*
X115133600Y-59336400D01*
X115133600Y-61438400D01*
G37*
G36*
X136765600Y-60032200D02*
G01*
X134963600Y-60032200D01*
X134963600Y-58230200D01*
X136765600Y-58230200D01*
X136765600Y-60032200D01*
G37*
G36*
X133438112Y-58235127D02*
G01*
X133587412Y-58264824D01*
X133751384Y-58332744D01*
X133898954Y-58431347D01*
X134024453Y-58556846D01*
X134123056Y-58704416D01*
X134190976Y-58868388D01*
X134225600Y-59042459D01*
X134225600Y-59219941D01*
X134190976Y-59394012D01*
X134123056Y-59557984D01*
X134024453Y-59705554D01*
X133898954Y-59831053D01*
X133751384Y-59929656D01*
X133587412Y-59997576D01*
X133438112Y-60027273D01*
X133413342Y-60032200D01*
X133235858Y-60032200D01*
X133211088Y-60027273D01*
X133061788Y-59997576D01*
X132897816Y-59929656D01*
X132750246Y-59831053D01*
X132624747Y-59705554D01*
X132526144Y-59557984D01*
X132458224Y-59394012D01*
X132423600Y-59219941D01*
X132423600Y-59042459D01*
X132458224Y-58868388D01*
X132526144Y-58704416D01*
X132624747Y-58556846D01*
X132750246Y-58431347D01*
X132897816Y-58332744D01*
X133061788Y-58264824D01*
X133211088Y-58235127D01*
X133235858Y-58230200D01*
X133413342Y-58230200D01*
X133438112Y-58235127D01*
G37*
G36*
X111316868Y-57444965D02*
G01*
X111355538Y-57456696D01*
X111391177Y-57475746D01*
X111422417Y-57501383D01*
X111448054Y-57532623D01*
X111467104Y-57568262D01*
X111478835Y-57606932D01*
X111483400Y-57653288D01*
X111483400Y-58729512D01*
X111478835Y-58775868D01*
X111467104Y-58814538D01*
X111448054Y-58850177D01*
X111422417Y-58881417D01*
X111391177Y-58907054D01*
X111355538Y-58926104D01*
X111316868Y-58937835D01*
X111270512Y-58942400D01*
X110619288Y-58942400D01*
X110572932Y-58937835D01*
X110534262Y-58926104D01*
X110498623Y-58907054D01*
X110467383Y-58881417D01*
X110441746Y-58850177D01*
X110422696Y-58814538D01*
X110410965Y-58775868D01*
X110406400Y-58729512D01*
X110406400Y-57653288D01*
X110410965Y-57606932D01*
X110422696Y-57568262D01*
X110441746Y-57532623D01*
X110467383Y-57501383D01*
X110498623Y-57475746D01*
X110534262Y-57456696D01*
X110572932Y-57444965D01*
X110619288Y-57440400D01*
X111270512Y-57440400D01*
X111316868Y-57444965D01*
G37*
G36*
X109441868Y-57444965D02*
G01*
X109480538Y-57456696D01*
X109516177Y-57475746D01*
X109547417Y-57501383D01*
X109573054Y-57532623D01*
X109592104Y-57568262D01*
X109603835Y-57606932D01*
X109608400Y-57653288D01*
X109608400Y-58729512D01*
X109603835Y-58775868D01*
X109592104Y-58814538D01*
X109573054Y-58850177D01*
X109547417Y-58881417D01*
X109516177Y-58907054D01*
X109480538Y-58926104D01*
X109441868Y-58937835D01*
X109395512Y-58942400D01*
X108744288Y-58942400D01*
X108697932Y-58937835D01*
X108659262Y-58926104D01*
X108623623Y-58907054D01*
X108592383Y-58881417D01*
X108566746Y-58850177D01*
X108547696Y-58814538D01*
X108535965Y-58775868D01*
X108531400Y-58729512D01*
X108531400Y-57653288D01*
X108535965Y-57606932D01*
X108547696Y-57568262D01*
X108566746Y-57532623D01*
X108592383Y-57501383D01*
X108623623Y-57475746D01*
X108659262Y-57456696D01*
X108697932Y-57444965D01*
X108744288Y-57440400D01*
X109395512Y-57440400D01*
X109441868Y-57444965D01*
G37*
G36*
X105031538Y-57723516D02*
G01*
X105052157Y-57729771D01*
X105071153Y-57739924D01*
X105087808Y-57753592D01*
X105101476Y-57770247D01*
X105111629Y-57789243D01*
X105117884Y-57809862D01*
X105120600Y-57837440D01*
X105120600Y-58296160D01*
X105117884Y-58323738D01*
X105111629Y-58344357D01*
X105101476Y-58363353D01*
X105087808Y-58380008D01*
X105071153Y-58393676D01*
X105052157Y-58403829D01*
X105031538Y-58410084D01*
X105003960Y-58412800D01*
X104495240Y-58412800D01*
X104467662Y-58410084D01*
X104447043Y-58403829D01*
X104428047Y-58393676D01*
X104411392Y-58380008D01*
X104397724Y-58363353D01*
X104387571Y-58344357D01*
X104381316Y-58323738D01*
X104378600Y-58296160D01*
X104378600Y-57837440D01*
X104381316Y-57809862D01*
X104387571Y-57789243D01*
X104397724Y-57770247D01*
X104411392Y-57753592D01*
X104428047Y-57739924D01*
X104447043Y-57729771D01*
X104467662Y-57723516D01*
X104495240Y-57720800D01*
X105003960Y-57720800D01*
X105031538Y-57723516D01*
G37*
G36*
X126259600Y-57520000D02*
G01*
X125657600Y-57520000D01*
X125657600Y-56568000D01*
X126259600Y-56568000D01*
X126259600Y-57520000D01*
G37*
G36*
X124989600Y-57520000D02*
G01*
X124387600Y-57520000D01*
X124387600Y-56568000D01*
X124989600Y-56568000D01*
X124989600Y-57520000D01*
G37*
G36*
X122449600Y-57520000D02*
G01*
X121847600Y-57520000D01*
X121847600Y-56568000D01*
X122449600Y-56568000D01*
X122449600Y-57520000D01*
G37*
G36*
X123719600Y-57520000D02*
G01*
X123117600Y-57520000D01*
X123117600Y-56568000D01*
X123719600Y-56568000D01*
X123719600Y-57520000D01*
G37*
G36*
X105031538Y-56753516D02*
G01*
X105052157Y-56759771D01*
X105071153Y-56769924D01*
X105087808Y-56783592D01*
X105101476Y-56800247D01*
X105111629Y-56819243D01*
X105117884Y-56839862D01*
X105120600Y-56867440D01*
X105120600Y-57326160D01*
X105117884Y-57353738D01*
X105111629Y-57374357D01*
X105101476Y-57393353D01*
X105087808Y-57410008D01*
X105071153Y-57423676D01*
X105052157Y-57433829D01*
X105031538Y-57440084D01*
X105003960Y-57442800D01*
X104495240Y-57442800D01*
X104467662Y-57440084D01*
X104447043Y-57433829D01*
X104428047Y-57423676D01*
X104411392Y-57410008D01*
X104397724Y-57393353D01*
X104387571Y-57374357D01*
X104381316Y-57353738D01*
X104378600Y-57326160D01*
X104378600Y-56867440D01*
X104381316Y-56839862D01*
X104387571Y-56819243D01*
X104397724Y-56800247D01*
X104411392Y-56783592D01*
X104428047Y-56769924D01*
X104447043Y-56759771D01*
X104467662Y-56753516D01*
X104495240Y-56750800D01*
X105003960Y-56750800D01*
X105031538Y-56753516D01*
G37*
G36*
X131759560Y-56900920D02*
G01*
X130157560Y-56900920D01*
X130157560Y-54798920D01*
X131759560Y-54798920D01*
X131759560Y-56900920D01*
G37*
G36*
X134059560Y-56900920D02*
G01*
X132457560Y-56900920D01*
X132457560Y-54798920D01*
X134059560Y-54798920D01*
X134059560Y-56900920D01*
G37*
G36*
X136359560Y-56900920D02*
G01*
X134757560Y-56900920D01*
X134757560Y-54798920D01*
X136359560Y-54798920D01*
X136359560Y-56900920D01*
G37*
G36*
X139179558Y-56019716D02*
G01*
X139200177Y-56025971D01*
X139219173Y-56036124D01*
X139235828Y-56049792D01*
X139249496Y-56066447D01*
X139259649Y-56085443D01*
X139265904Y-56106062D01*
X139268620Y-56133640D01*
X139268620Y-56642360D01*
X139265904Y-56669938D01*
X139259649Y-56690557D01*
X139249496Y-56709553D01*
X139235828Y-56726208D01*
X139219173Y-56739876D01*
X139200177Y-56750029D01*
X139179558Y-56756284D01*
X139151980Y-56759000D01*
X138693260Y-56759000D01*
X138665682Y-56756284D01*
X138645063Y-56750029D01*
X138626067Y-56739876D01*
X138609412Y-56726208D01*
X138595744Y-56709553D01*
X138585591Y-56690557D01*
X138579336Y-56669938D01*
X138576620Y-56642360D01*
X138576620Y-56133640D01*
X138579336Y-56106062D01*
X138585591Y-56085443D01*
X138595744Y-56066447D01*
X138609412Y-56049792D01*
X138626067Y-56036124D01*
X138645063Y-56025971D01*
X138665682Y-56019716D01*
X138693260Y-56017000D01*
X139151980Y-56017000D01*
X139179558Y-56019716D01*
G37*
G36*
X138209558Y-56019716D02*
G01*
X138230177Y-56025971D01*
X138249173Y-56036124D01*
X138265828Y-56049792D01*
X138279496Y-56066447D01*
X138289649Y-56085443D01*
X138295904Y-56106062D01*
X138298620Y-56133640D01*
X138298620Y-56642360D01*
X138295904Y-56669938D01*
X138289649Y-56690557D01*
X138279496Y-56709553D01*
X138265828Y-56726208D01*
X138249173Y-56739876D01*
X138230177Y-56750029D01*
X138209558Y-56756284D01*
X138181980Y-56759000D01*
X137723260Y-56759000D01*
X137695682Y-56756284D01*
X137675063Y-56750029D01*
X137656067Y-56739876D01*
X137639412Y-56726208D01*
X137625744Y-56709553D01*
X137615591Y-56690557D01*
X137609336Y-56669938D01*
X137606620Y-56642360D01*
X137606620Y-56133640D01*
X137609336Y-56106062D01*
X137615591Y-56085443D01*
X137625744Y-56066447D01*
X137639412Y-56049792D01*
X137656067Y-56036124D01*
X137675063Y-56025971D01*
X137695682Y-56019716D01*
X137723260Y-56017000D01*
X138181980Y-56017000D01*
X138209558Y-56019716D01*
G37*
G36*
X118943600Y-56538400D02*
G01*
X118241600Y-56538400D01*
X118241600Y-54436400D01*
X118943600Y-54436400D01*
X118943600Y-56538400D01*
G37*
G36*
X117673600Y-56538400D02*
G01*
X116971600Y-56538400D01*
X116971600Y-54436400D01*
X117673600Y-54436400D01*
X117673600Y-56538400D01*
G37*
G36*
X116403600Y-56538400D02*
G01*
X115701600Y-56538400D01*
X115701600Y-54436400D01*
X116403600Y-54436400D01*
X116403600Y-56538400D01*
G37*
G36*
X115133600Y-56538400D02*
G01*
X114431600Y-56538400D01*
X114431600Y-54436400D01*
X115133600Y-54436400D01*
X115133600Y-56538400D01*
G37*
G36*
X107024268Y-54727165D02*
G01*
X107062938Y-54738896D01*
X107098577Y-54757946D01*
X107129817Y-54783583D01*
X107155454Y-54814823D01*
X107174504Y-54850462D01*
X107186235Y-54889132D01*
X107190800Y-54935488D01*
X107190800Y-56011712D01*
X107186235Y-56058068D01*
X107174504Y-56096738D01*
X107155454Y-56132377D01*
X107129817Y-56163617D01*
X107098577Y-56189254D01*
X107062938Y-56208304D01*
X107024268Y-56220035D01*
X106977912Y-56224600D01*
X106326688Y-56224600D01*
X106280332Y-56220035D01*
X106241662Y-56208304D01*
X106206023Y-56189254D01*
X106174783Y-56163617D01*
X106149146Y-56132377D01*
X106130096Y-56096738D01*
X106118365Y-56058068D01*
X106113800Y-56011712D01*
X106113800Y-54935488D01*
X106118365Y-54889132D01*
X106130096Y-54850462D01*
X106149146Y-54814823D01*
X106174783Y-54783583D01*
X106206023Y-54757946D01*
X106241662Y-54738896D01*
X106280332Y-54727165D01*
X106326688Y-54722600D01*
X106977912Y-54722600D01*
X107024268Y-54727165D01*
G37*
G36*
X105149268Y-54727165D02*
G01*
X105187938Y-54738896D01*
X105223577Y-54757946D01*
X105254817Y-54783583D01*
X105280454Y-54814823D01*
X105299504Y-54850462D01*
X105311235Y-54889132D01*
X105315800Y-54935488D01*
X105315800Y-56011712D01*
X105311235Y-56058068D01*
X105299504Y-56096738D01*
X105280454Y-56132377D01*
X105254817Y-56163617D01*
X105223577Y-56189254D01*
X105187938Y-56208304D01*
X105149268Y-56220035D01*
X105102912Y-56224600D01*
X104451688Y-56224600D01*
X104405332Y-56220035D01*
X104366662Y-56208304D01*
X104331023Y-56189254D01*
X104299783Y-56163617D01*
X104274146Y-56132377D01*
X104255096Y-56096738D01*
X104243365Y-56058068D01*
X104238800Y-56011712D01*
X104238800Y-54935488D01*
X104243365Y-54889132D01*
X104255096Y-54850462D01*
X104274146Y-54814823D01*
X104299783Y-54783583D01*
X104331023Y-54757946D01*
X104366662Y-54738896D01*
X104405332Y-54727165D01*
X104451688Y-54722600D01*
X105102912Y-54722600D01*
X105149268Y-54727165D01*
G37*
G36*
X111316868Y-54701765D02*
G01*
X111355538Y-54713496D01*
X111391177Y-54732546D01*
X111422417Y-54758183D01*
X111448054Y-54789423D01*
X111467104Y-54825062D01*
X111478835Y-54863732D01*
X111483400Y-54910088D01*
X111483400Y-55986312D01*
X111478835Y-56032668D01*
X111467104Y-56071338D01*
X111448054Y-56106977D01*
X111422417Y-56138217D01*
X111391177Y-56163854D01*
X111355538Y-56182904D01*
X111316868Y-56194635D01*
X111270512Y-56199200D01*
X110619288Y-56199200D01*
X110572932Y-56194635D01*
X110534262Y-56182904D01*
X110498623Y-56163854D01*
X110467383Y-56138217D01*
X110441746Y-56106977D01*
X110422696Y-56071338D01*
X110410965Y-56032668D01*
X110406400Y-55986312D01*
X110406400Y-54910088D01*
X110410965Y-54863732D01*
X110422696Y-54825062D01*
X110441746Y-54789423D01*
X110467383Y-54758183D01*
X110498623Y-54732546D01*
X110534262Y-54713496D01*
X110572932Y-54701765D01*
X110619288Y-54697200D01*
X111270512Y-54697200D01*
X111316868Y-54701765D01*
G37*
G36*
X109441868Y-54701765D02*
G01*
X109480538Y-54713496D01*
X109516177Y-54732546D01*
X109547417Y-54758183D01*
X109573054Y-54789423D01*
X109592104Y-54825062D01*
X109603835Y-54863732D01*
X109608400Y-54910088D01*
X109608400Y-55986312D01*
X109603835Y-56032668D01*
X109592104Y-56071338D01*
X109573054Y-56106977D01*
X109547417Y-56138217D01*
X109516177Y-56163854D01*
X109480538Y-56182904D01*
X109441868Y-56194635D01*
X109395512Y-56199200D01*
X108744288Y-56199200D01*
X108697932Y-56194635D01*
X108659262Y-56182904D01*
X108623623Y-56163854D01*
X108592383Y-56138217D01*
X108566746Y-56106977D01*
X108547696Y-56071338D01*
X108535965Y-56032668D01*
X108531400Y-55986312D01*
X108531400Y-54910088D01*
X108535965Y-54863732D01*
X108547696Y-54825062D01*
X108566746Y-54789423D01*
X108592383Y-54758183D01*
X108623623Y-54732546D01*
X108659262Y-54713496D01*
X108697932Y-54701765D01*
X108744288Y-54697200D01*
X109395512Y-54697200D01*
X109441868Y-54701765D01*
G37*
G36*
X128978658Y-53956696D02*
G01*
X128999277Y-53962951D01*
X129018273Y-53973104D01*
X129034928Y-53986772D01*
X129048596Y-54003427D01*
X129058749Y-54022423D01*
X129065004Y-54043042D01*
X129067720Y-54070620D01*
X129067720Y-54529340D01*
X129065004Y-54556918D01*
X129058749Y-54577537D01*
X129048596Y-54596533D01*
X129034928Y-54613188D01*
X129018273Y-54626856D01*
X128999277Y-54637009D01*
X128978658Y-54643264D01*
X128951080Y-54645980D01*
X128442360Y-54645980D01*
X128414782Y-54643264D01*
X128394163Y-54637009D01*
X128375167Y-54626856D01*
X128358512Y-54613188D01*
X128344844Y-54596533D01*
X128334691Y-54577537D01*
X128328436Y-54556918D01*
X128325720Y-54529340D01*
X128325720Y-54070620D01*
X128328436Y-54043042D01*
X128334691Y-54022423D01*
X128344844Y-54003427D01*
X128358512Y-53986772D01*
X128375167Y-53973104D01*
X128394163Y-53962951D01*
X128414782Y-53956696D01*
X128442360Y-53953980D01*
X128951080Y-53953980D01*
X128978658Y-53956696D01*
G37*
G36*
X126274691Y-53284945D02*
G01*
X126308669Y-53295253D01*
X126339990Y-53311994D01*
X126367439Y-53334521D01*
X126389966Y-53361970D01*
X126406707Y-53393291D01*
X126417015Y-53427269D01*
X126421100Y-53468750D01*
X126421100Y-54069970D01*
X126417015Y-54111451D01*
X126406707Y-54145429D01*
X126389966Y-54176750D01*
X126367439Y-54204199D01*
X126339990Y-54226726D01*
X126308669Y-54243467D01*
X126274691Y-54253775D01*
X126233210Y-54257860D01*
X125556990Y-54257860D01*
X125515509Y-54253775D01*
X125481531Y-54243467D01*
X125450210Y-54226726D01*
X125422761Y-54204199D01*
X125400234Y-54176750D01*
X125383493Y-54145429D01*
X125373185Y-54111451D01*
X125369100Y-54069970D01*
X125369100Y-53468750D01*
X125373185Y-53427269D01*
X125383493Y-53393291D01*
X125400234Y-53361970D01*
X125422761Y-53334521D01*
X125450210Y-53311994D01*
X125481531Y-53295253D01*
X125515509Y-53284945D01*
X125556990Y-53280860D01*
X126233210Y-53280860D01*
X126274691Y-53284945D01*
G37*
G36*
X123725938Y-53303916D02*
G01*
X123746557Y-53310171D01*
X123765553Y-53320324D01*
X123782208Y-53333992D01*
X123795876Y-53350647D01*
X123806029Y-53369643D01*
X123812284Y-53390262D01*
X123815000Y-53417840D01*
X123815000Y-53876560D01*
X123812284Y-53904138D01*
X123806029Y-53924757D01*
X123795876Y-53943753D01*
X123782208Y-53960408D01*
X123765553Y-53974076D01*
X123746557Y-53984229D01*
X123725938Y-53990484D01*
X123698360Y-53993200D01*
X123189640Y-53993200D01*
X123162062Y-53990484D01*
X123141443Y-53984229D01*
X123122447Y-53974076D01*
X123105792Y-53960408D01*
X123092124Y-53943753D01*
X123081971Y-53924757D01*
X123075716Y-53904138D01*
X123073000Y-53876560D01*
X123073000Y-53417840D01*
X123075716Y-53390262D01*
X123081971Y-53369643D01*
X123092124Y-53350647D01*
X123105792Y-53333992D01*
X123122447Y-53320324D01*
X123141443Y-53310171D01*
X123162062Y-53303916D01*
X123189640Y-53301200D01*
X123698360Y-53301200D01*
X123725938Y-53303916D01*
G37*
G36*
X128978658Y-52986696D02*
G01*
X128999277Y-52992951D01*
X129018273Y-53003104D01*
X129034928Y-53016772D01*
X129048596Y-53033427D01*
X129058749Y-53052423D01*
X129065004Y-53073042D01*
X129067720Y-53100620D01*
X129067720Y-53559340D01*
X129065004Y-53586918D01*
X129058749Y-53607537D01*
X129048596Y-53626533D01*
X129034928Y-53643188D01*
X129018273Y-53656856D01*
X128999277Y-53667009D01*
X128978658Y-53673264D01*
X128951080Y-53675980D01*
X128442360Y-53675980D01*
X128414782Y-53673264D01*
X128394163Y-53667009D01*
X128375167Y-53656856D01*
X128358512Y-53643188D01*
X128344844Y-53626533D01*
X128334691Y-53607537D01*
X128328436Y-53586918D01*
X128325720Y-53559340D01*
X128325720Y-53100620D01*
X128328436Y-53073042D01*
X128334691Y-53052423D01*
X128344844Y-53033427D01*
X128358512Y-53016772D01*
X128375167Y-53003104D01*
X128394163Y-52992951D01*
X128414782Y-52986696D01*
X128442360Y-52983980D01*
X128951080Y-52983980D01*
X128978658Y-52986696D01*
G37*
G36*
X116482991Y-52627085D02*
G01*
X116516969Y-52637393D01*
X116548290Y-52654134D01*
X116575739Y-52676661D01*
X116598266Y-52704110D01*
X116615007Y-52735431D01*
X116625315Y-52769409D01*
X116629400Y-52810890D01*
X116629400Y-53412110D01*
X116625315Y-53453591D01*
X116615007Y-53487569D01*
X116598266Y-53518890D01*
X116575739Y-53546339D01*
X116548290Y-53568866D01*
X116516969Y-53585607D01*
X116482991Y-53595915D01*
X116441510Y-53600000D01*
X115765290Y-53600000D01*
X115723809Y-53595915D01*
X115689831Y-53585607D01*
X115658510Y-53568866D01*
X115631061Y-53546339D01*
X115608534Y-53518890D01*
X115591793Y-53487569D01*
X115581485Y-53453591D01*
X115577400Y-53412110D01*
X115577400Y-52810890D01*
X115581485Y-52769409D01*
X115591793Y-52735431D01*
X115608534Y-52704110D01*
X115631061Y-52676661D01*
X115658510Y-52654134D01*
X115689831Y-52637393D01*
X115723809Y-52627085D01*
X115765290Y-52623000D01*
X116441510Y-52623000D01*
X116482991Y-52627085D01*
G37*
G36*
X109441868Y-51882365D02*
G01*
X109480538Y-51894096D01*
X109516177Y-51913146D01*
X109547417Y-51938783D01*
X109573054Y-51970023D01*
X109592104Y-52005662D01*
X109603835Y-52044332D01*
X109608400Y-52090688D01*
X109608400Y-53166912D01*
X109603835Y-53213268D01*
X109592104Y-53251938D01*
X109573054Y-53287577D01*
X109547417Y-53318817D01*
X109516177Y-53344454D01*
X109480538Y-53363504D01*
X109441868Y-53375235D01*
X109395512Y-53379800D01*
X108744288Y-53379800D01*
X108697932Y-53375235D01*
X108659262Y-53363504D01*
X108623623Y-53344454D01*
X108592383Y-53318817D01*
X108566746Y-53287577D01*
X108547696Y-53251938D01*
X108535965Y-53213268D01*
X108531400Y-53166912D01*
X108531400Y-52090688D01*
X108535965Y-52044332D01*
X108547696Y-52005662D01*
X108566746Y-51970023D01*
X108592383Y-51938783D01*
X108623623Y-51913146D01*
X108659262Y-51894096D01*
X108697932Y-51882365D01*
X108744288Y-51877800D01*
X109395512Y-51877800D01*
X109441868Y-51882365D01*
G37*
G36*
X111316868Y-51882365D02*
G01*
X111355538Y-51894096D01*
X111391177Y-51913146D01*
X111422417Y-51938783D01*
X111448054Y-51970023D01*
X111467104Y-52005662D01*
X111478835Y-52044332D01*
X111483400Y-52090688D01*
X111483400Y-53166912D01*
X111478835Y-53213268D01*
X111467104Y-53251938D01*
X111448054Y-53287577D01*
X111422417Y-53318817D01*
X111391177Y-53344454D01*
X111355538Y-53363504D01*
X111316868Y-53375235D01*
X111270512Y-53379800D01*
X110619288Y-53379800D01*
X110572932Y-53375235D01*
X110534262Y-53363504D01*
X110498623Y-53344454D01*
X110467383Y-53318817D01*
X110441746Y-53287577D01*
X110422696Y-53251938D01*
X110410965Y-53213268D01*
X110406400Y-53166912D01*
X110406400Y-52090688D01*
X110410965Y-52044332D01*
X110422696Y-52005662D01*
X110441746Y-51970023D01*
X110467383Y-51938783D01*
X110498623Y-51913146D01*
X110534262Y-51894096D01*
X110572932Y-51882365D01*
X110619288Y-51877800D01*
X111270512Y-51877800D01*
X111316868Y-51882365D01*
G37*
G36*
X123725938Y-52333916D02*
G01*
X123746557Y-52340171D01*
X123765553Y-52350324D01*
X123782208Y-52363992D01*
X123795876Y-52380647D01*
X123806029Y-52399643D01*
X123812284Y-52420262D01*
X123815000Y-52447840D01*
X123815000Y-52906560D01*
X123812284Y-52934138D01*
X123806029Y-52954757D01*
X123795876Y-52973753D01*
X123782208Y-52990408D01*
X123765553Y-53004076D01*
X123746557Y-53014229D01*
X123725938Y-53020484D01*
X123698360Y-53023200D01*
X123189640Y-53023200D01*
X123162062Y-53020484D01*
X123141443Y-53014229D01*
X123122447Y-53004076D01*
X123105792Y-52990408D01*
X123092124Y-52973753D01*
X123081971Y-52954757D01*
X123075716Y-52934138D01*
X123073000Y-52906560D01*
X123073000Y-52447840D01*
X123075716Y-52420262D01*
X123081971Y-52399643D01*
X123092124Y-52380647D01*
X123105792Y-52363992D01*
X123122447Y-52350324D01*
X123141443Y-52340171D01*
X123162062Y-52333916D01*
X123189640Y-52331200D01*
X123698360Y-52331200D01*
X123725938Y-52333916D01*
G37*
G36*
X126274691Y-51709945D02*
G01*
X126308669Y-51720253D01*
X126339990Y-51736994D01*
X126367439Y-51759521D01*
X126389966Y-51786970D01*
X126406707Y-51818291D01*
X126417015Y-51852269D01*
X126421100Y-51893750D01*
X126421100Y-52494970D01*
X126417015Y-52536451D01*
X126406707Y-52570429D01*
X126389966Y-52601750D01*
X126367439Y-52629199D01*
X126339990Y-52651726D01*
X126308669Y-52668467D01*
X126274691Y-52678775D01*
X126233210Y-52682860D01*
X125556990Y-52682860D01*
X125515509Y-52678775D01*
X125481531Y-52668467D01*
X125450210Y-52651726D01*
X125422761Y-52629199D01*
X125400234Y-52601750D01*
X125383493Y-52570429D01*
X125373185Y-52536451D01*
X125369100Y-52494970D01*
X125369100Y-51893750D01*
X125373185Y-51852269D01*
X125383493Y-51818291D01*
X125400234Y-51786970D01*
X125422761Y-51759521D01*
X125450210Y-51736994D01*
X125481531Y-51720253D01*
X125515509Y-51709945D01*
X125556990Y-51705860D01*
X126233210Y-51705860D01*
X126274691Y-51709945D01*
G37*
G36*
X116482991Y-51052085D02*
G01*
X116516969Y-51062393D01*
X116548290Y-51079134D01*
X116575739Y-51101661D01*
X116598266Y-51129110D01*
X116615007Y-51160431D01*
X116625315Y-51194409D01*
X116629400Y-51235890D01*
X116629400Y-51837110D01*
X116625315Y-51878591D01*
X116615007Y-51912569D01*
X116598266Y-51943890D01*
X116575739Y-51971339D01*
X116548290Y-51993866D01*
X116516969Y-52010607D01*
X116482991Y-52020915D01*
X116441510Y-52025000D01*
X115765290Y-52025000D01*
X115723809Y-52020915D01*
X115689831Y-52010607D01*
X115658510Y-51993866D01*
X115631061Y-51971339D01*
X115608534Y-51943890D01*
X115591793Y-51912569D01*
X115581485Y-51878591D01*
X115577400Y-51837110D01*
X115577400Y-51235890D01*
X115581485Y-51194409D01*
X115591793Y-51160431D01*
X115608534Y-51129110D01*
X115631061Y-51101661D01*
X115658510Y-51079134D01*
X115689831Y-51062393D01*
X115723809Y-51052085D01*
X115765290Y-51048000D01*
X116441510Y-51048000D01*
X116482991Y-51052085D01*
G37*
G36*
X135209560Y-50600920D02*
G01*
X131307560Y-50600920D01*
X131307560Y-48498920D01*
X135209560Y-48498920D01*
X135209560Y-50600920D01*
G37*
G36*
X111342268Y-48961365D02*
G01*
X111380938Y-48973096D01*
X111416577Y-48992146D01*
X111447817Y-49017783D01*
X111473454Y-49049023D01*
X111492504Y-49084662D01*
X111504235Y-49123332D01*
X111508800Y-49169688D01*
X111508800Y-50245912D01*
X111504235Y-50292268D01*
X111492504Y-50330938D01*
X111473454Y-50366577D01*
X111447817Y-50397817D01*
X111416577Y-50423454D01*
X111380938Y-50442504D01*
X111342268Y-50454235D01*
X111295912Y-50458800D01*
X110644688Y-50458800D01*
X110598332Y-50454235D01*
X110559662Y-50442504D01*
X110524023Y-50423454D01*
X110492783Y-50397817D01*
X110467146Y-50366577D01*
X110448096Y-50330938D01*
X110436365Y-50292268D01*
X110431800Y-50245912D01*
X110431800Y-49169688D01*
X110436365Y-49123332D01*
X110448096Y-49084662D01*
X110467146Y-49049023D01*
X110492783Y-49017783D01*
X110524023Y-48992146D01*
X110559662Y-48973096D01*
X110598332Y-48961365D01*
X110644688Y-48956800D01*
X111295912Y-48956800D01*
X111342268Y-48961365D01*
G37*
G36*
X109467268Y-48961365D02*
G01*
X109505938Y-48973096D01*
X109541577Y-48992146D01*
X109572817Y-49017783D01*
X109598454Y-49049023D01*
X109617504Y-49084662D01*
X109629235Y-49123332D01*
X109633800Y-49169688D01*
X109633800Y-50245912D01*
X109629235Y-50292268D01*
X109617504Y-50330938D01*
X109598454Y-50366577D01*
X109572817Y-50397817D01*
X109541577Y-50423454D01*
X109505938Y-50442504D01*
X109467268Y-50454235D01*
X109420912Y-50458800D01*
X108769688Y-50458800D01*
X108723332Y-50454235D01*
X108684662Y-50442504D01*
X108649023Y-50423454D01*
X108617783Y-50397817D01*
X108592146Y-50366577D01*
X108573096Y-50330938D01*
X108561365Y-50292268D01*
X108556800Y-50245912D01*
X108556800Y-49169688D01*
X108561365Y-49123332D01*
X108573096Y-49084662D01*
X108592146Y-49049023D01*
X108617783Y-49017783D01*
X108649023Y-48992146D01*
X108684662Y-48973096D01*
X108723332Y-48961365D01*
X108769688Y-48956800D01*
X109420912Y-48956800D01*
X109467268Y-48961365D01*
G37*
G36*
X121754200Y-50227800D02*
G01*
X119952200Y-50227800D01*
X119952200Y-48425800D01*
X121754200Y-48425800D01*
X121754200Y-50227800D01*
G37*
G36*
X116496391Y-49135085D02*
G01*
X116530369Y-49145393D01*
X116561690Y-49162134D01*
X116589139Y-49184661D01*
X116611666Y-49212110D01*
X116628407Y-49243431D01*
X116638715Y-49277409D01*
X116642800Y-49318890D01*
X116642800Y-49995110D01*
X116638715Y-50036591D01*
X116628407Y-50070569D01*
X116611666Y-50101890D01*
X116589139Y-50129339D01*
X116561690Y-50151866D01*
X116530369Y-50168607D01*
X116496391Y-50178915D01*
X116454910Y-50183000D01*
X115853690Y-50183000D01*
X115812209Y-50178915D01*
X115778231Y-50168607D01*
X115746910Y-50151866D01*
X115719461Y-50129339D01*
X115696934Y-50101890D01*
X115680193Y-50070569D01*
X115669885Y-50036591D01*
X115665800Y-49995110D01*
X115665800Y-49318890D01*
X115669885Y-49277409D01*
X115680193Y-49243431D01*
X115696934Y-49212110D01*
X115719461Y-49184661D01*
X115746910Y-49162134D01*
X115778231Y-49145393D01*
X115812209Y-49135085D01*
X115853690Y-49131000D01*
X116454910Y-49131000D01*
X116496391Y-49135085D01*
G37*
G36*
X114921391Y-49135085D02*
G01*
X114955369Y-49145393D01*
X114986690Y-49162134D01*
X115014139Y-49184661D01*
X115036666Y-49212110D01*
X115053407Y-49243431D01*
X115063715Y-49277409D01*
X115067800Y-49318890D01*
X115067800Y-49995110D01*
X115063715Y-50036591D01*
X115053407Y-50070569D01*
X115036666Y-50101890D01*
X115014139Y-50129339D01*
X114986690Y-50151866D01*
X114955369Y-50168607D01*
X114921391Y-50178915D01*
X114879910Y-50183000D01*
X114278690Y-50183000D01*
X114237209Y-50178915D01*
X114203231Y-50168607D01*
X114171910Y-50151866D01*
X114144461Y-50129339D01*
X114121934Y-50101890D01*
X114105193Y-50070569D01*
X114094885Y-50036591D01*
X114090800Y-49995110D01*
X114090800Y-49318890D01*
X114094885Y-49277409D01*
X114105193Y-49243431D01*
X114121934Y-49212110D01*
X114144461Y-49184661D01*
X114171910Y-49162134D01*
X114203231Y-49145393D01*
X114237209Y-49135085D01*
X114278690Y-49131000D01*
X114879910Y-49131000D01*
X114921391Y-49135085D01*
G37*
G36*
X127124785Y-46942002D02*
G01*
X127274610Y-46971804D01*
X127556874Y-47088721D01*
X127810905Y-47258459D01*
X128026941Y-47474495D01*
X128196679Y-47728526D01*
X128313596Y-48010790D01*
X128373200Y-48310440D01*
X128373200Y-48615960D01*
X128313596Y-48915610D01*
X128196679Y-49197874D01*
X128026941Y-49451905D01*
X127810905Y-49667941D01*
X127556874Y-49837679D01*
X127274610Y-49954596D01*
X127124785Y-49984398D01*
X126974961Y-50014200D01*
X126669439Y-50014200D01*
X126519615Y-49984398D01*
X126369790Y-49954596D01*
X126087526Y-49837679D01*
X125833495Y-49667941D01*
X125617459Y-49451905D01*
X125447721Y-49197874D01*
X125330804Y-48915610D01*
X125271200Y-48615960D01*
X125271200Y-48310440D01*
X125330804Y-48010790D01*
X125447721Y-47728526D01*
X125617459Y-47474495D01*
X125833495Y-47258459D01*
X126087526Y-47088721D01*
X126369790Y-46971804D01*
X126519615Y-46942002D01*
X126669439Y-46912200D01*
X126974961Y-46912200D01*
X127124785Y-46942002D01*
G37*
G36*
X141206098Y-42759033D02*
G01*
X141670350Y-42951332D01*
X141670352Y-42951333D01*
X142088168Y-43230509D01*
X142443491Y-43585832D01*
X142722667Y-44003648D01*
X142722668Y-44003650D01*
X142914967Y-44467902D01*
X143013000Y-44960747D01*
X143013000Y-45463253D01*
X142914967Y-45956098D01*
X142722668Y-46420350D01*
X142722667Y-46420352D01*
X142443491Y-46838168D01*
X142088168Y-47193491D01*
X141670352Y-47472667D01*
X141670351Y-47472668D01*
X141670350Y-47472668D01*
X141206098Y-47664967D01*
X140713253Y-47763000D01*
X140210747Y-47763000D01*
X139717902Y-47664967D01*
X139253650Y-47472668D01*
X139253649Y-47472668D01*
X139253648Y-47472667D01*
X138835832Y-47193491D01*
X138480509Y-46838168D01*
X138201333Y-46420352D01*
X138201332Y-46420350D01*
X138009033Y-45956098D01*
X137911000Y-45463253D01*
X137911000Y-44960747D01*
X138009033Y-44467902D01*
X138201332Y-44003650D01*
X138201333Y-44003648D01*
X138480509Y-43585832D01*
X138835832Y-43230509D01*
X139253648Y-42951333D01*
X139253650Y-42951332D01*
X139717902Y-42759033D01*
X140210747Y-42661000D01*
X140713253Y-42661000D01*
X141206098Y-42759033D01*
G37*
G36*
X119925400Y-45935200D02*
G01*
X118123400Y-45935200D01*
X118123400Y-44133200D01*
X119925400Y-44133200D01*
X119925400Y-45935200D01*
G37*
G36*
X114057912Y-44138127D02*
G01*
X114207212Y-44167824D01*
X114371184Y-44235744D01*
X114518754Y-44334347D01*
X114644253Y-44459846D01*
X114742856Y-44607416D01*
X114810776Y-44771388D01*
X114845400Y-44945459D01*
X114845400Y-45122941D01*
X114810776Y-45297012D01*
X114742856Y-45460984D01*
X114644253Y-45608554D01*
X114518754Y-45734053D01*
X114371184Y-45832656D01*
X114207212Y-45900576D01*
X114057912Y-45930273D01*
X114033142Y-45935200D01*
X113855658Y-45935200D01*
X113830888Y-45930273D01*
X113681588Y-45900576D01*
X113517616Y-45832656D01*
X113370046Y-45734053D01*
X113244547Y-45608554D01*
X113145944Y-45460984D01*
X113078024Y-45297012D01*
X113043400Y-45122941D01*
X113043400Y-44945459D01*
X113078024Y-44771388D01*
X113145944Y-44607416D01*
X113244547Y-44459846D01*
X113370046Y-44334347D01*
X113517616Y-44235744D01*
X113681588Y-44167824D01*
X113830888Y-44138127D01*
X113855658Y-44133200D01*
X114033142Y-44133200D01*
X114057912Y-44138127D01*
G37*
G36*
X116597912Y-44138127D02*
G01*
X116747212Y-44167824D01*
X116911184Y-44235744D01*
X117058754Y-44334347D01*
X117184253Y-44459846D01*
X117282856Y-44607416D01*
X117350776Y-44771388D01*
X117385400Y-44945459D01*
X117385400Y-45122941D01*
X117350776Y-45297012D01*
X117282856Y-45460984D01*
X117184253Y-45608554D01*
X117058754Y-45734053D01*
X116911184Y-45832656D01*
X116747212Y-45900576D01*
X116597912Y-45930273D01*
X116573142Y-45935200D01*
X116395658Y-45935200D01*
X116370888Y-45930273D01*
X116221588Y-45900576D01*
X116057616Y-45832656D01*
X115910046Y-45734053D01*
X115784547Y-45608554D01*
X115685944Y-45460984D01*
X115618024Y-45297012D01*
X115583400Y-45122941D01*
X115583400Y-44945459D01*
X115618024Y-44771388D01*
X115685944Y-44607416D01*
X115784547Y-44459846D01*
X115910046Y-44334347D01*
X116057616Y-44235744D01*
X116221588Y-44167824D01*
X116370888Y-44138127D01*
X116395658Y-44133200D01*
X116573142Y-44133200D01*
X116597912Y-44138127D01*
G37*
G36*
X128922272Y-41177428D02*
G01*
X129108991Y-41254770D01*
X129108993Y-41254771D01*
X129277037Y-41367054D01*
X129419946Y-41509963D01*
X129532229Y-41678007D01*
X129532230Y-41678009D01*
X129609572Y-41864728D01*
X129649000Y-42062947D01*
X129649000Y-42265053D01*
X129609572Y-42463272D01*
X129532230Y-42649991D01*
X129532229Y-42649993D01*
X129419946Y-42818037D01*
X129277037Y-42960946D01*
X129108993Y-43073229D01*
X129108992Y-43073230D01*
X129108991Y-43073230D01*
X128922272Y-43150572D01*
X128724053Y-43190000D01*
X128521947Y-43190000D01*
X128323728Y-43150572D01*
X128137009Y-43073230D01*
X128137008Y-43073230D01*
X128137007Y-43073229D01*
X127968963Y-42960946D01*
X127826054Y-42818037D01*
X127713771Y-42649993D01*
X127713770Y-42649991D01*
X127636428Y-42463272D01*
X127597000Y-42265053D01*
X127597000Y-42062947D01*
X127636428Y-41864728D01*
X127713770Y-41678009D01*
X127713771Y-41678007D01*
X127826054Y-41509963D01*
X127968963Y-41367054D01*
X128137007Y-41254771D01*
X128137009Y-41254770D01*
X128323728Y-41177428D01*
X128521947Y-41138000D01*
X128724053Y-41138000D01*
X128922272Y-41177428D01*
G37*
G36*
X125422272Y-41177428D02*
G01*
X125608991Y-41254770D01*
X125608993Y-41254771D01*
X125777037Y-41367054D01*
X125919946Y-41509963D01*
X126032229Y-41678007D01*
X126032230Y-41678009D01*
X126109572Y-41864728D01*
X126149000Y-42062947D01*
X126149000Y-42265053D01*
X126109572Y-42463272D01*
X126032230Y-42649991D01*
X126032229Y-42649993D01*
X125919946Y-42818037D01*
X125777037Y-42960946D01*
X125608993Y-43073229D01*
X125608992Y-43073230D01*
X125608991Y-43073230D01*
X125422272Y-43150572D01*
X125224053Y-43190000D01*
X125021947Y-43190000D01*
X124823728Y-43150572D01*
X124637009Y-43073230D01*
X124637008Y-43073230D01*
X124637007Y-43073229D01*
X124468963Y-42960946D01*
X124326054Y-42818037D01*
X124213771Y-42649993D01*
X124213770Y-42649991D01*
X124136428Y-42463272D01*
X124097000Y-42265053D01*
X124097000Y-42062947D01*
X124136428Y-41864728D01*
X124213770Y-41678009D01*
X124213771Y-41678007D01*
X124326054Y-41509963D01*
X124468963Y-41367054D01*
X124637007Y-41254771D01*
X124637009Y-41254770D01*
X124823728Y-41177428D01*
X125021947Y-41138000D01*
X125224053Y-41138000D01*
X125422272Y-41177428D01*
G37*
M02*
